<svg viewBox="0 0 217 217" version="1.1" xmlns="http://www.w3.org/2000/svg">
    <g>
        <path d="M10.9129118,213.648622 C10.3826415,213.253866 9.33388476,210.667325 8.60918206,206.130568 C-4.59454767,130.160514 5.72215503,72.6497575 24.4996145,0.279649415 L22.2312361,-0.315431666 C3.42431719,72.1253791 -6.98665578,130.131055 6.28777665,206.537109 C7.15388476,211.238839 7.89037125,213.907866 9.3044253,215.357271 C9.77577665,215.810947 10.518155,216.140893 11.2369658,216.028947 C11.9734523,215.911109 12.5037226,215.498676 12.9397226,215.039109 C15.8208577,211.828028 18.478101,201.80592 21.9484253,186.864082 C32.1649658,142.280136 47.0066415,55.9580278 67.7755604,8.68737914 C69.0423172,5.79446023 70.1146415,3.97386563 70.8098848,3.24327104 C70.9571821,3.09008185 71.069128,2.99581158 71.1457226,2.94867644 C71.4638848,3.43770347 72.0707496,5.46451428 72.2828577,8.33975752 C74.5217767,31.3417035 67.1215604,109.99846 78.3338307,138.697866 C79.465074,141.561325 80.661128,143.594028 82.0633983,144.931487 C83.3831821,146.198244 85.0505875,146.775649 86.659074,146.451595 C88.2616685,146.127541 89.7051821,145.102352 91.0956685,143.641163 C100.387182,133.63673 110.350371,99.5639197 118.769885,68.6845143 C121.114858,60.0175413 123.601236,54.75019 126.099398,52.13419 C129.599182,48.534244 132.898642,49.2707305 138.042263,52.6408927 C152.51275,62.4096494 174.236155,94.4910008 209.799614,84.7517035 L197.179182,98.1380818 L198.881939,99.7406764 L216.050912,81.5288386 L194.598533,77.7167846 L194.180209,80.0264062 L208.792101,82.6188386 C186.850696,88.4635954 170.559614,77.64019 157.520858,66.4043521 C150.586101,60.4064062 144.676533,54.3377575 139.367939,50.6965683 C134.212533,47.0200278 128.738966,45.81219 124.396642,50.5257035 C121.427128,53.7073251 118.917182,59.2398116 116.501506,68.0776494 C108.223398,98.7920818 97.8595604,133.165379 89.3929118,142.038568 C86.8063712,144.542622 85.5219388,144.807758 83.6777767,143.211055 C82.6702631,142.280136 81.5625875,140.524352 80.5138307,137.837649 C74.3332361,122.200568 73.9384794,89.5830548 74.4275064,60.3239197 C74.6572902,45.6825683 75.0873983,31.8484062 75.0697226,21.2665683 C75.0638307,15.9638656 74.940101,11.4978116 74.6160469,8.12175752 C74.2389658,4.70446023 73.9325875,2.50678455 72.6422631,1.15164941 C72.2062631,0.680298064 71.4049658,0.42105482 70.7391821,0.603703469 C70.0675064,0.745108874 69.5666956,1.15754131 69.1130199,1.64067644 C68.0230199,2.80137914 66.9624794,4.73981158 65.6250199,7.73878455 C51.6376685,39.6080278 40.4253983,88.5637575 31.4579388,130.873433 C26.9918848,152.019433 23.0678848,171.509812 19.674155,186.339703 C16.351128,201.093001 13.2343172,211.480406 11.2369658,213.436514 C11.0896685,213.595595 10.9953983,213.648622 10.9423712,213.67219 C10.9423712,213.666298 10.9305875,213.660406 10.9129118,213.648622" id="Fill-1" transform="translate(108.183172, 107.867740) rotate(90.000000) translate(-108.183172, -107.867740)" />
    </g>
</svg>
