<?xml version="1.0" encoding="utf-8"?>
<!-- Generator: Adobe Illustrator 16.0.0, SVG Export Plug-In . SVG Version: 6.00 Build 0)  -->
<!DOCTYPE svg PUBLIC "-//W3C//DTD SVG 1.1//EN" "http://www.w3.org/Graphics/SVG/1.1/DTD/svg11.dtd">
<svg version="1.1" id="Layer_1" xmlns="http://www.w3.org/2000/svg" xmlns:xlink="http://www.w3.org/1999/xlink" x="0px" y="0px"
	 width="318.127px" height="87.82px" viewBox="-40.874 0 318.127 87.82" enable-background="new -40.874 0 318.127 87.82"
	 xml:space="preserve">
<g>
	<g>
		<path d="M0,67.979c0-0.116,0.029-0.83,0.088-2.139c0.058-1.309,0.186-3.051,0.381-5.225c0.195-2.174,0.422-4.688,0.679-7.539
			c0.257-2.853,0.618-5.86,1.085-9.021c0.467-3.161,1.018-6.405,1.651-9.729C4.518,31,5.272,27.764,6.146,24.613
			c0.874-3.151,1.873-6.12,2.998-8.908c1.125-2.789,2.388-5.227,3.788-7.315c1.399-2.089,2.962-3.739,4.686-4.952
			c1.723-1.214,3.613-1.82,5.673-1.82c0.795,0,1.631,0.137,2.508,0.41c0.877,0.274,1.678,0.719,2.402,1.336
			c0.726,0.616,1.327,1.432,1.807,2.447c0.479,1.017,0.72,2.266,0.72,3.75c0,1.38-0.224,2.965-0.67,4.754
			c-0.446,1.79-1.073,3.703-1.881,5.738c-0.809,2.035-1.761,4.152-2.858,6.351c-1.098,2.199-2.298,4.392-3.6,6.579
			c-1.303,2.188-2.672,4.34-4.106,6.457c-1.436,2.117-2.9,4.1-4.396,5.947l-0.07,0.562c0.494-0.205,0.864-0.339,1.111-0.4
			c0.246-0.062,0.506-0.092,0.777-0.092c0.327,0,0.591,0.025,0.791,0.076c0.201,0.052,0.383,0.107,0.547,0.17
			c0.163,0.061,0.333,0.117,0.509,0.168c0.176,0.053,0.389,0.078,0.641,0.078c2.32,0,4.371-0.275,6.152-0.825
			c1.78-0.549,3.281-1.163,4.5-1.843c1.429-0.771,2.672-1.672,3.727-2.701l-0.773,8.566c-1.547,0.853-3.164,1.516-4.852,1.989
			c-1.688,0.473-3.247,0.829-4.676,1.065c-1.665,0.262-3.338,0.428-5.021,0.498c0.904,1.543,1.721,3.146,2.449,4.807
			c0.628,1.427,1.199,3.023,1.715,4.789c0.515,1.767,0.772,3.549,0.772,5.352c0,0.21-0.032,0.654-0.095,1.333
			c-0.062,0.679-0.168,1.509-0.314,2.491c-0.147,0.98-0.356,2.068-0.626,3.263c-0.271,1.192-0.619,2.397-1.049,3.614
			c-0.43,1.216-0.951,2.392-1.564,3.525c-0.614,1.135-1.332,2.141-2.153,3.019c-0.822,0.877-1.767,1.584-2.834,2.122
			c-1.068,0.537-2.276,0.808-3.626,0.808c-1.281,0-2.398-0.293-3.353-0.877s-1.77-1.373-2.444-2.366
			c-0.676-0.992-1.241-2.148-1.694-3.47c-0.454-1.321-0.81-2.717-1.065-4.188c-0.255-1.473-0.437-2.976-0.541-4.504
			C0.052,70.883,0,69.405,0,67.979z M9.299,49.501c-0.096,0-0.202,0.269-0.32,0.804c-0.119,0.535-0.211,1.208-0.275,2.018
			c-0.064,0.811-0.156,1.963-0.275,3.459c-0.12,1.496-0.219,2.723-0.296,3.678c-0.078,0.955-0.14,1.861-0.187,2.717
			c-0.048,0.855-0.07,1.529-0.07,2.021c0,3.445,0.064,6.188,0.194,8.227c0.13,2.039,0.294,3.586,0.495,4.642
			c0.2,1.056,0.425,1.74,0.672,2.058c0.247,0.316,0.501,0.475,0.761,0.475c0.802,0,1.444-0.363,1.928-1.09
			c0.484-0.727,0.849-1.646,1.097-2.76c0.247-1.113,0.412-2.332,0.495-3.656c0.082-1.324,0.124-2.596,0.124-3.814
			c0-0.82-0.024-1.828-0.071-3.023c-0.048-1.194-0.119-2.485-0.214-3.871c-0.095-1.385-0.29-2.951-0.587-4.699
			s-0.712-3.062-1.246-3.941c-0.533-0.88-0.967-1.64-1.299-2.278C9.892,49.821,9.583,49.501,9.299,49.501z M18.196,12.753
			c-1.381,3.111-2.515,6.071-3.401,8.878c-0.813,2.573-1.424,4.854-1.831,6.842c-0.406,1.989-0.696,3.738-0.869,5.247
			c-0.172,1.509-0.341,2.907-0.506,4.192c1.503-2.689,3.057-5.31,4.659-7.859c1.603-2.551,3.005-4.941,4.207-7.176
			s2.23-4.393,3.085-6.475c0.854-2.082,1.28-3.567,1.28-4.457c0-1.239-0.175-2.146-0.522-2.719
			c-0.347-0.573-0.928-0.859-1.738-0.859c-1.282,0-2.145,0.28-2.589,0.842C19.626,9.677,19.034,10.858,18.196,12.753z"/>
		<path d="M36.423,66.657c-1.261,0-2.435-0.55-3.52-1.646c-1.086-1.096-2.032-2.565-2.837-4.411
			c-0.806-1.847-1.437-3.983-1.892-6.419c-0.455-2.434-0.683-4.988-0.683-7.665c0-2.299,0.338-5.369,1.014-9.21
			c0.676-3.841,1.014-5.761,1.014-5.759c0,0,0.512-1.918,1.536-5.754c1.023-3.836,2.051-6.912,3.08-9.229
			c1.029-2.317,2.148-4.481,3.355-6.494c1.207-2.013,2.474-3.768,3.8-5.264c1.325-1.494,2.71-2.67,4.154-3.525
			C46.89,0.427,48.357,0,49.849,0c1.085,0,1.981,0.207,2.688,0.621s1.262,0.961,1.666,1.641c0.404,0.68,0.688,1.449,0.853,2.31
			c0.163,0.86,0.246,1.737,0.246,2.628c0,2.217-0.263,4.473-0.786,6.771c-0.524,2.297-1.23,4.607-2.12,6.928
			c-0.89,2.322-1.919,4.649-3.089,6.982c-1.17,2.334-2.389,4.648-3.655,6.947c-1.267,2.298-2.54,4.561-3.819,6.787
			c-1.279,2.228-2.46,4.404-3.542,6.531c-0.117,0.236-0.241,0.545-0.37,0.922c-0.13,0.379-0.253,0.787-0.37,1.224
			c-0.117,0.438-0.235,0.904-0.353,1.4c-0.117,0.497-0.212,0.98-0.282,1.454v0.496c0,0.614,0.064,1.211,0.193,1.79
			c0.13,0.578,0.288,1.1,0.477,1.561c0.188,0.461,0.388,0.827,0.6,1.1c0.211,0.271,0.411,0.408,0.6,0.408
			c0.456,0,0.978-0.097,1.565-0.283c0.588-0.189,1.212-0.443,1.872-0.764c0.66-0.318,1.338-0.686,2.033-1.099
			c0.696-0.414,1.369-0.834,2.017-1.261c1.512-0.991,3.096-2.139,4.752-3.438l3.104,7.41c-2.148,1.428-4.272,2.696-6.372,3.811
			c-0.917,0.469-1.864,0.932-2.842,1.389s-1.961,0.863-2.951,1.221c-0.989,0.355-1.955,0.641-2.896,0.852
			C38.125,66.551,37.244,66.657,36.423,66.657z M36.457,38.787c1.058-1.891,2.18-4.018,3.367-6.381
			c1.188-2.363,2.311-4.799,3.369-7.304s1.975-5.005,2.751-7.499c0.775-2.492,1.27-4.814,1.481-6.966
			c0-0.686-0.018-1.271-0.05-1.755c-0.034-0.484-0.14-0.727-0.316-0.727c-0.645,0-1.339,0.445-2.083,1.335
			c-0.743,0.89-1.488,2.096-2.231,3.614c-0.744,1.52-1.633,3.992-2.666,7.415c-1.033,3.423-1.55,5.136-1.55,5.136
			c0,0.002-0.315,1.59-0.946,4.766C36.953,33.598,36.578,36.387,36.457,38.787z"/>
		<path d="M84.441,57.943c-0.539,0.759-1.26,1.647-2.162,2.666c-0.902,1.021-1.916,1.992-3.041,2.916
			c-1.125,0.925-2.332,1.707-3.621,2.347c-1.289,0.641-2.578,0.961-3.867,0.961c-1.557,0-2.854-0.494-3.895-1.479
			c-1.04-0.985-1.938-2.42-2.693-4.299c-0.567,0.649-1.265,1.312-2.091,1.983c-0.827,0.672-1.731,1.281-2.711,1.826
			s-2.002,0.991-3.065,1.34c-1.063,0.348-2.127,0.521-3.189,0.521c-1.125,0-2.221-0.23-3.287-0.691
			c-1.067-0.461-2.01-1.123-2.83-1.986c-0.821-0.862-1.477-1.916-1.969-3.156c-0.492-1.241-0.738-2.643-0.738-4.202
			c0-1.752,0.247-3.551,0.742-5.396c0.495-1.845,1.262-3.841,2.299-5.991c1.037-2.149,2.151-4.005,3.343-5.57
			c1.19-1.564,2.492-2.931,3.907-4.099c1.415-1.168,2.906-2.096,4.474-2.785c1.568-0.689,3.165-1.033,4.792-1.033
			c0.543,0,0.967,0.105,1.273,0.319c0.307,0.213,0.561,0.456,0.761,0.728c0.2,0.273,0.395,0.539,0.583,0.8
			c0.188,0.261,0.424,0.45,0.708,0.569c0.282,0.118,0.571,0.195,0.866,0.23c0.294,0.035,0.596,0.053,0.901,0.053
			c0.26,0,0.524-0.006,0.796-0.018c0.272-0.012,0.536-0.018,0.796-0.018c0.354,0,0.684,0.035,0.99,0.105
			c0.307,0.072,0.577,0.227,0.812,0.463c0.235,0.237,0.417,0.568,0.546,0.994c0.129,0.427,0.193,1.008,0.193,1.741
			c0,1.12-0.117,2.363-0.352,3.729c-0.234,1.365-0.503,2.765-0.805,4.197c-0.303,1.433-0.648,3.066-1.035,4.9
			c-0.387,1.834-0.58,3.38-0.58,4.637c0,1.074,0.1,1.914,0.299,2.521c0.199,0.606,0.627,0.907,1.283,0.907
			c0.492,0,1.008-0.123,1.547-0.365c0.539-0.244,1.084-0.562,1.635-0.958c0.551-0.396,1.102-0.843,1.652-1.343
			s1.072-1.018,1.564-1.551c1.148-1.256,2.309-2.672,3.48-4.251L84.441,57.943z M54.281,55.189c0,0.604,0.04,1.19,0.123,1.761
			c0.082,0.566,0.229,1.074,0.44,1.521c0.211,0.445,0.492,0.811,0.845,1.087c0.353,0.278,0.798,0.418,1.338,0.418
			c0.869,0,1.655-0.378,2.359-1.134c0.704-0.756,1.315-1.663,1.832-2.725c0.516-1.062,0.933-2.16,1.25-3.293
			c0.316-1.133,0.522-2.076,0.616-2.831l2.622-11.429c-0.962,0-1.898,0.238-2.812,0.715c-0.914,0.476-1.775,1.121-2.584,1.934
			s-1.553,1.742-2.232,2.787c-0.681,1.047-1.349,2.336-2.004,3.869c-0.656,1.533-1.12,2.881-1.389,4.042
			C54.416,53.077,54.281,54.168,54.281,55.189z"/>
		<path d="M110.848,58.782c-2.254,1.311-4.26,2.461-6.021,3.444c-1.76,0.983-3.327,1.806-4.699,2.461
			c-1.374,0.655-2.594,1.147-3.661,1.478c-1.068,0.328-2.037,0.492-2.904,0.492c-1.772,0-3.334-0.539-4.687-1.617
			c-1.352-1.078-2.482-2.631-3.392-4.658c-0.91-2.027-1.591-4.482-2.045-7.365c-0.455-2.883-0.682-6.129-0.682-9.738
			c0-1.406,0.058-2.906,0.174-4.5c0.116-1.594,0.278-3.176,0.488-4.746c-0.708-0.105-1.257-0.203-1.646-0.294
			c-0.389-0.091-0.802-0.183-1.238-0.274c-0.437-0.091-0.991-0.188-1.663-0.293c-0.673-0.104-1.646-0.234-2.92-0.392
			c-0.565-0.078-1.003-0.228-1.31-0.449c-0.306-0.222-0.53-0.483-0.673-0.782c-0.141-0.301-0.223-0.613-0.247-0.939
			c-0.023-0.326-0.035-0.607-0.035-0.842c0-0.37,0.229-0.652,0.688-0.846c0.46-0.195,1.049-0.34,1.768-0.438
			c0.718-0.097,1.507-0.151,2.367-0.163c0.86-0.012,1.685-0.006,2.475,0.018c0.788,0.023,1.495,0.041,2.12,0.053
			c0.624,0.012,1.054-0.006,1.29-0.053c0.631-3.155,1.433-6.211,2.403-9.168c0.972-2.956,2.059-5.585,3.264-7.887
			c1.205-2.303,2.521-4.148,3.948-5.539c1.428-1.391,2.925-2.086,4.492-2.086c1.009,0,1.929,0.281,2.762,0.843
			s1.542,1.312,2.129,2.247c0.586,0.938,1.037,2.032,1.354,3.285c0.316,1.252,0.476,2.558,0.476,3.916
			c0,1.123-0.164,2.311-0.493,3.559c-0.328,1.25-0.773,2.523-1.336,3.818s-1.226,2.607-1.987,3.938
			c-0.761,1.331-1.564,2.648-2.408,3.955c0.211-0.078,0.563-0.092,1.056-0.045c0.493,0.047,1.061,0.08,1.706,0.1
			c0.645,0.018,1.341,0.037,2.092,0.056c0.75,0.019,1.477,0.04,2.18,0.063c0.703,0.023,1.358,0.047,1.969,0.07
			c0.609,0.023,1.112,0.047,1.512,0.07c0.469,0.025,0.809,0.287,1.02,0.782s0.316,1.122,0.316,1.878
			c0,0.876-0.235,1.589-0.704,2.139c-0.47,0.551-0.985,0.826-1.549,0.826H95.08c-0.683,0.938-1.372,1.857-2.066,2.76
			c-0.694,0.903-1.336,1.717-1.924,2.443c-0.094,1.453-0.176,2.883-0.246,4.289c-0.023,0.609-0.048,1.236-0.07,1.881
			c-0.023,0.645-0.048,1.283-0.07,1.916c-0.023,0.633-0.041,1.242-0.053,1.828c-0.013,0.586-0.018,1.125-0.018,1.617
			c0,1.267,0.117,2.332,0.353,3.198c0.236,0.867,0.577,1.576,1.023,2.127c0.447,0.552,0.994,0.949,1.642,1.195
			c0.646,0.246,1.37,0.369,2.171,0.369c0.492,0,1.107-0.117,1.847-0.352c0.74-0.235,1.548-0.557,2.429-0.967
			c0.88-0.41,1.807-0.896,2.779-1.459c0.974-0.562,1.936-1.178,2.886-1.846c0.95-0.668,1.859-1.371,2.728-2.109
			c0.869-0.738,1.654-1.494,2.358-2.268L110.848,58.782L110.848,58.782z M99.598,14.262c0-0.257-0.019-0.543-0.054-0.857
			c-0.035-0.316-0.111-0.613-0.229-0.893c-0.118-0.281-0.3-0.514-0.548-0.701c-0.247-0.187-0.594-0.279-1.041-0.279
			c-0.611,0-1.229,0.535-1.853,1.605c-0.624,1.07-1.224,2.438-1.801,4.1c-0.576,1.664-1.117,3.497-1.623,5.498
			c-0.506,2.002-0.971,3.944-1.395,5.828c0.354,0.035,0.706,0.066,1.059,0.092c0.354,0.027,0.718,0.057,1.095,0.092
			c0.706-1.182,1.441-2.461,2.206-3.838c0.765-1.379,1.452-2.732,2.064-4.064c0.611-1.332,1.117-2.576,1.518-3.734
			C99.396,15.951,99.598,15.002,99.598,14.262z"/>
		<path d="M98.124,57.75c0.305-0.215,0.822-0.564,1.551-1.051c0.729-0.488,1.587-1.062,2.573-1.728
			c0.988-0.664,2.051-1.396,3.19-2.188c1.141-0.796,2.263-1.597,3.368-2.404l0.281-2.427c0.516-4.996,1.348-9.581,2.497-13.756
			c1.149-4.176,2.504-7.947,4.063-11.312c1.56-3.367,3.26-6.311,5.101-8.832s3.717-4.635,5.629-6.336
			c1.911-1.7,3.8-2.973,5.664-3.818c1.864-0.844,3.605-1.266,5.223-1.266c1.195,0,2.294,0.228,3.298,0.684
			c1.004,0.455,1.863,1.139,2.582,2.051c0.717,0.911,1.277,2.051,1.686,3.417c0.406,1.367,0.609,2.962,0.609,4.785
			c0,2.207-0.331,4.521-0.992,6.942c-0.66,2.42-1.6,4.865-2.814,7.333c-1.217,2.469-2.675,4.931-4.375,7.388
			c-1.7,2.456-3.583,4.824-5.65,7.102c-2.066,2.279-4.298,4.433-6.694,6.462c-2.396,2.028-4.882,3.838-7.456,5.429
			c0,1.448-0.047,3.183-0.142,5.198c-0.023,0.854-0.041,1.5-0.053,1.939c-0.013,0.439-0.018,0.742-0.018,0.908s0,0.297,0,0.391
			c0,0.215,0.041,0.41,0.123,0.588c0.083,0.179,0.247,0.32,0.495,0.429c0.247,0.104,0.582,0.188,1.006,0.247
			c0.424,0.061,0.989,0.091,1.696,0.091c1.035,0,2.46-0.479,4.273-1.44l11.775-3.384c0.144-0.044,0.334-0.077,0.574-0.101
			c0.191-0.02,0.371-0.032,0.539-0.032c0.597,0,1.112,0.112,1.542,0.341c0.43,0.229,0.79,0.532,1.077,0.915
			c0.286,0.382,0.503,0.824,0.646,1.326s0.215,1.017,0.215,1.541c0,0.479-0.07,0.944-0.213,1.399
			c-0.144,0.453-0.357,0.879-0.644,1.273s-0.644,0.734-1.071,1.021s-0.928,0.479-1.499,0.574c-2.329,0.76-4.705,1.439-7.128,2.043
			c-1.059,0.305-2.15,0.616-3.276,0.94c-1.127,0.321-2.265,0.647-3.413,0.979c-1.148,0.328-2.335,0.537-3.559,0.625
			c-1.224,0.088-2.405,0.133-3.546,0.133c-1.728,0-3.146-0.285-4.255-0.854c-1.108-0.569-1.984-1.34-2.626-2.312
			c-0.643-0.971-1.092-2.369-1.349-4.199c-0.257-1.829-0.385-3.458-0.385-4.887c-2.022,1.475-3.739,2.645-5.149,3.511
			c-1.411,0.864-2.316,1.299-2.716,1.299s-0.781-0.135-1.146-0.403c-0.364-0.27-0.699-0.625-1.005-1.07
			c-0.306-0.443-0.547-0.94-0.724-1.49c-0.176-0.549-0.264-1.092-0.264-1.631c0-0.451,0.053-0.896,0.158-1.336
			C97.507,58.361,97.748,58.012,98.124,57.75z M118.091,45.254c1.198-1.258,2.448-2.629,3.751-4.111
			c1.303-1.483,2.595-3.038,3.875-4.664c1.279-1.626,2.512-3.287,3.698-4.984c1.186-1.697,2.254-3.388,3.204-5.073
			c0.951-1.685,1.749-3.323,2.396-4.913c0.646-1.59,1.062-3.098,1.25-4.521c0.07-0.475,0.118-0.932,0.142-1.371
			c0.022-0.438,0.035-0.848,0.035-1.228c0-1.353-0.183-2.337-0.546-2.954c-0.364-0.617-0.863-0.926-1.497-0.926
			c-0.752,0-1.632,0.396-2.642,1.191c-1.01,0.796-2.066,1.93-3.17,3.4c-1.104,1.473-2.219,3.252-3.347,5.34
			c-1.127,2.09-2.172,4.416-3.134,6.979c-0.963,2.562-1.802,5.352-2.519,8.366C118.872,38.799,118.372,41.955,118.091,45.254z"/>
		<path d="M171.151,59.943c-0.54,0.759-1.261,1.647-2.162,2.666c-0.901,1.021-1.915,1.992-3.04,2.916
			c-1.125,0.925-2.334,1.707-3.621,2.347c-1.289,0.641-2.58,0.961-3.867,0.961c-1.558,0-2.855-0.494-3.896-1.479
			s-1.938-2.42-2.692-4.299c-0.567,0.649-1.266,1.312-2.093,1.983s-1.729,1.281-2.711,1.826s-2.002,0.991-3.065,1.34
			c-1.062,0.348-2.125,0.521-3.188,0.521c-1.125,0-2.221-0.23-3.287-0.691c-1.066-0.461-2.009-1.123-2.83-1.986
			c-0.821-0.862-1.477-1.916-1.969-3.156c-0.492-1.241-0.738-2.643-0.738-4.202c0-1.752,0.247-3.551,0.743-5.396
			c0.495-1.846,1.261-3.841,2.299-5.991c1.037-2.147,2.151-4.005,3.341-5.57c1.19-1.564,2.493-2.931,3.909-4.099
			c1.413-1.168,2.904-2.096,4.473-2.785s3.166-1.033,4.793-1.033c0.541,0,0.967,0.105,1.272,0.319
			c0.308,0.213,0.56,0.456,0.761,0.728c0.199,0.273,0.395,0.539,0.584,0.8c0.188,0.261,0.424,0.45,0.707,0.569
			c0.281,0.118,0.57,0.195,0.865,0.23s0.596,0.053,0.902,0.053c0.259,0,0.523-0.006,0.795-0.018
			c0.271-0.012,0.537-0.018,0.796-0.018c0.354,0,0.685,0.035,0.991,0.105c0.306,0.072,0.576,0.227,0.812,0.463
			c0.233,0.237,0.416,0.568,0.545,0.994c0.129,0.427,0.193,1.008,0.193,1.741c0,1.12-0.118,2.363-0.352,3.729
			c-0.235,1.365-0.504,2.765-0.807,4.197c-0.303,1.433-0.646,3.066-1.033,4.9c-0.388,1.834-0.58,3.38-0.58,4.637
			c0,1.074,0.1,1.914,0.299,2.521c0.197,0.604,0.627,0.907,1.283,0.907c0.492,0,1.006-0.123,1.547-0.365
			c0.539-0.244,1.084-0.562,1.635-0.958c0.55-0.396,1.102-0.843,1.652-1.343c0.549-0.5,1.071-1.018,1.563-1.551
			c1.147-1.256,2.308-2.672,3.479-4.252L171.151,59.943z M140.99,57.189c0,0.604,0.041,1.19,0.123,1.761
			c0.083,0.566,0.229,1.074,0.44,1.521c0.211,0.445,0.493,0.811,0.845,1.087c0.354,0.278,0.799,0.418,1.339,0.418
			c0.868,0,1.655-0.378,2.359-1.134s1.313-1.663,1.831-2.725c0.517-1.062,0.934-2.16,1.25-3.293s0.521-2.076,0.615-2.83l2.623-11.43
			c-0.961,0-1.898,0.238-2.812,0.715c-0.914,0.476-1.775,1.121-2.584,1.934s-1.553,1.742-2.232,2.787
			c-0.68,1.047-1.348,2.336-2.004,3.869c-0.656,1.533-1.119,2.88-1.389,4.042S140.99,56.168,140.99,57.189z"/>
		<path d="M168.341,61.309c0-1.547,0.095-3.334,0.281-5.361c0.188-2.027,0.422-4.254,0.703-6.68
			c0.281-2.426,0.598-4.611,0.949-6.557c0.352-1.946,0.691-3.609,1.02-4.992c0.259-1.078,0.756-1.979,1.494-2.707
			s1.74-1.09,3.006-1.09c1.267,0,2.146,0.387,2.638,1.16c0.491,0.773,0.737,1.805,0.737,3.094c0,0.352-0.035,0.826-0.104,1.424
			s-0.157,1.254-0.265,1.969c-0.105,0.715-0.217,1.453-0.334,2.215c-0.116,0.762-0.229,1.629-0.334,2.602
			c-0.104,0.973-0.192,1.699-0.264,2.18c-0.07,0.481-0.104,0.803-0.104,0.967h0.702c0.142-0.258,0.363-0.674,0.668-1.248
			c0.306-0.574,0.656-1.4,1.056-2.479c0.399-1.079,0.826-2.033,1.283-2.865s0.885-1.629,1.282-2.391
			c0.398-0.762,0.763-1.436,1.091-2.021c0.327-0.585,0.573-1.02,0.737-1.301c0.75-1.266,1.605-2.133,2.566-2.602
			s2.027-0.703,3.199-0.703s2.104,0.492,2.795,1.477s1.037,2.344,1.037,4.078c0,0.258-0.053,0.691-0.158,1.301
			c-0.105,0.61-0.24,1.336-0.404,2.18s-0.346,1.934-0.545,3.27s-0.381,2.531-0.545,3.586s-0.299,2.098-0.404,3.129
			c-0.104,1.031-0.158,1.98-0.158,2.848c0,1.453,0.183,2.648,0.546,3.586c0.362,0.938,0.932,1.406,1.704,1.406
			c0.281,0,0.681-0.104,1.195-0.316c0.773-0.28,1.267-0.526,1.478-0.737c1.03-0.797,1.569-1.185,1.616-1.16
			c0.07,0.022,0.855-0.444,2.355-1.405c1.875-1.195,4.113-2.66,6.715-4.396l-0.035,7.875l-1.758,1.336
			c-0.141,0.117-1.242,0.728-3.305,1.828c-2.977,1.594-4.84,2.555-5.59,2.883c-1.828,0.819-2.965,1.289-3.41,1.406
			c-1.172,0.375-2.402,0.562-3.691,0.562s-2.373-0.932-3.252-2.795s-1.318-4.588-1.318-8.174c0-1.406,0.095-2.924,0.281-4.553
			c0.188-1.629,0.422-3.381,0.703-5.256h-0.562l-9.211,18.282c-0.492,0.983-1.021,1.641-1.582,1.969
			c-0.586,0.352-1.267,0.527-2.039,0.527c-0.961,0-1.733-0.205-2.32-0.615c-0.586-0.41-1.036-0.961-1.354-1.652
			c-0.316-0.691-0.526-1.477-0.633-2.355C168.394,63.159,168.341,62.247,168.341,61.309z"/>
		<path d="M242.281,61.34c-1.664,1.369-3.305,2.589-4.922,3.658c-0.68,0.449-1.395,0.891-2.145,1.326s-1.488,0.821-2.215,1.157
			c-0.728,0.336-1.434,0.608-2.119,0.821c-0.685,0.212-1.312,0.316-1.883,0.316c-0.336,0-0.834-0.074-1.494-0.225
			c-0.659-0.15-1.379-0.454-2.159-0.914c-0.779-0.461-1.56-1.127-2.339-1.998c-0.78-0.871-1.459-2.027-2.033-3.473
			c-0.87,0.896-1.793,1.748-2.77,2.557c-0.976,0.809-1.986,1.512-3.031,2.109c-1.047,0.597-2.104,1.076-3.174,1.438
			c-1.069,0.36-2.146,0.541-3.228,0.541c-1.522,0-2.842-0.316-3.955-0.951c-1.112-0.633-2.039-1.477-2.776-2.529
			c-0.738-1.051-1.289-2.245-1.652-3.582c-0.363-1.336-0.545-2.717-0.545-4.143c0-1.521,0.193-3.062,0.58-4.621
			c0.387-1.558,0.949-3.068,1.688-4.531c0.739-1.463,1.559-2.991,2.461-4.586c0.902-1.594,2.098-3.045,3.586-4.354
			s3.018-2.295,4.588-2.961s3.246-1.082,5.027-1.25c0.07-3.045,0.395-5.727,0.971-8.047c0.575-2.32,1.195-4.816,1.859-7.489
			c0.663-2.673,1.52-5.134,2.568-7.384c1.05-2.25,2.199-4.195,3.447-5.835c1.25-1.64,2.582-2.923,3.995-3.849
			c1.414-0.926,2.877-1.389,4.386-1.389c1.102,0,2.039,0.287,2.812,0.862c0.772,0.575,1.399,1.339,1.881,2.289
			c0.479,0.952,0.826,2.056,1.037,3.312c0.211,1.256,0.315,2.553,0.315,3.891c0,0.836-0.008,1.695-0.022,2.578
			c-0.065,3.364-0.586,6.496-1.558,9.395c-0.971,2.899-1.932,5.764-2.881,8.597c-0.949,2.832-2.092,5.635-3.434,8.407
			c-2.047,4.242-3.352,7.121-3.911,8.639c-0.122,0.332-0.243,0.734-0.364,1.209c-0.123,0.473-0.238,0.988-0.349,1.544
			c-0.11,0.559-0.201,1.127-0.274,1.707c-0.072,0.582-0.108,1.145-0.108,1.688c0,0.688,0.04,1.339,0.12,1.956
			c0.078,0.615,0.211,1.167,0.394,1.652c0.183,0.486,0.429,0.871,0.736,1.154c0.308,0.284,0.688,0.428,1.146,0.428
			c0.445,0,0.932-0.09,1.459-0.266c0.527-0.179,1.084-0.421,1.67-0.729c0.586-0.309,1.178-0.655,1.775-1.047
			c0.598-0.389,1.178-0.784,1.74-1.188c1.289-0.945,2.637-2.021,4.043-3.227L242.281,61.34z M217.912,40.578
			c-1.547,0.756-2.924,1.755-4.131,2.995c-1.207,1.241-2.215,2.877-3.023,4.909c-0.809,2.033-1.424,3.781-1.846,5.246
			c-0.422,1.466-0.633,2.789-0.633,3.972c0,0.366,0.053,0.733,0.158,1.1c0.105,0.367,0.299,0.697,0.58,0.992
			c0.281,0.293,0.68,0.531,1.195,0.715c0.515,0.184,1.184,0.275,2.004,0.275c0.422,0,0.839-0.095,1.248-0.281
			c0.412-0.188,0.805-0.433,1.18-0.732c0.376-0.301,0.732-0.645,1.072-1.029c0.341-0.384,0.652-0.783,0.934-1.199
			c0.657-0.957,1.256-2.037,1.795-3.242c-0.07-0.332-0.131-0.856-0.178-1.577c-0.048-0.722-0.084-1.82-0.107-3.297
			c-0.022-1.477-0.047-2.688-0.07-3.633s-0.041-1.809-0.055-2.588c-0.012-0.78-0.029-1.418-0.053-1.914
			S217.936,40.555,217.912,40.578z M234.498,16.594c0.146-1.643,0.219-2.943,0.219-3.905c0-1.267-0.112-2.146-0.34-2.638
			c-0.225-0.492-0.553-0.738-0.981-0.738c-0.763,0-1.454,0.475-2.073,1.424c-0.619,0.949-1.117,2.172-1.494,3.672
			c-0.377,1.498-0.785,3.127-1.229,4.887c-0.443,1.76-0.766,3.482-0.971,5.169s-0.367,3.207-0.49,4.561s-0.209,2.315-0.262,2.886
			c-0.102,1.164-0.186,2.287-0.248,3.367c-0.063,1.08-0.109,2.066-0.135,2.957s-0.039,1.669-0.039,2.334c0,0.665,0,1.176,0,1.531
			v0.357c1.305-3.123,2.506-6.232,3.604-9.332c0.457-1.32,0.909-2.697,1.354-4.131c0.447-1.435,0.892-2.857,1.33-4.27
			c0.439-1.41,0.812-2.809,1.115-4.191C234.164,19.15,234.376,17.836,234.498,16.594z"/>
		<path d="M260.16,68.941c-0.054,0.097-0.1,0.326-0.14,0.688c-0.04,0.363-0.134,0.8-0.28,1.307c-0.146,0.509-0.354,1.04-0.619,1.598
			c-0.267,0.557-0.66,1.07-1.181,1.543c-0.521,0.471-1.181,0.863-1.979,1.178c-0.799,0.315-1.801,0.473-3,0.473
			c-0.986,0-1.881-0.115-2.681-0.346c-0.8-0.229-1.485-0.586-2.061-1.07c-0.573-0.482-1.021-1.1-1.341-1.85
			c-0.318-0.75-0.479-1.646-0.479-2.687c0-0.868,0.141-1.724,0.42-2.558c0.28-0.834,0.713-1.577,1.301-2.231
			c0.586-0.651,1.346-1.172,2.279-1.56c0.934-0.387,2.04-0.581,3.319-0.581c2.079,0,3.681,0.509,4.801,1.524
			c1.119,1.016,1.681,2.467,1.681,4.354C260.201,68.82,260.187,68.893,260.16,68.941z M253.201,55.167
			c0.266-2.746,0.666-5.581,1.199-8.5s1.201-5.824,2.004-8.715c0.803-2.891,1.602-5.763,2.395-8.615
			c0.791-2.852,1.553-5.589,2.279-8.209c0.729-2.621,1.414-5.088,2.057-7.4s1.22-4.395,1.732-6.244
			c0.364-1.28,0.891-2.312,1.577-3.1c0.687-0.787,1.451-1.4,2.292-1.84c0.842-0.44,1.73-0.74,2.672-0.9
			c0.938-0.16,1.844-0.24,2.713-0.24c0.448,0,0.869,0.054,1.262,0.16c0.394,0.107,0.729,0.3,1.011,0.58
			c0.278,0.279,0.493,0.667,0.642,1.16c0.146,0.494,0.219,1.127,0.219,1.899c0,0.534-0.033,1.12-0.1,1.763
			c-0.066,0.641-0.18,1.404-0.34,2.29c-0.921,3.067-1.855,6.181-2.807,9.337c-0.949,3.156-2.198,6.52-3.75,10.09
			c-1.555,3.57-3.32,7.496-5.305,11.779c-1.98,4.284-4.193,9.186-6.633,14.706c-0.054,0.293-0.193,0.565-0.42,0.819
			c-0.227,0.255-0.5,0.468-0.82,0.64c-0.32,0.174-0.666,0.308-1.039,0.399c-0.373,0.095-0.733,0.142-1.08,0.142
			c-0.508,0-0.939-0.105-1.301-0.32c-0.359-0.213-0.539-0.572-0.539-1.08C253.121,55.633,253.146,55.433,253.201,55.167z"/>
	</g>
</g>
</svg>
