<?xml version="1.0" encoding="utf-8"?>
<!DOCTYPE svg PUBLIC "-//W3C//DTD SVG 1.1//EN" "http://www.w3.org/Graphics/SVG/1.1/DTD/svg11.dtd">
<svg version="1.1" id="Calque_1" xmlns="http://www.w3.org/2000/svg" xmlns:xlink="http://www.w3.org/1999/xlink" x="0px" y="0px" width="595.28px" height="595.28px" viewBox="0 0 595.28 595.28" enable-background="new 0 0 595.28 595.28" xml:space="preserve" xmlns:inkscape="http://www.inkscape.org/namespaces/inkscape" xmlns:sodipodi="http://sodipodi.sourceforge.net/DTD/sodipodi-0.dtd">
	<g>
		<linearGradient id="rect3587_1_" gradientUnits="userSpaceOnUse" x1="298.479" y1="297.894" x2="298.479" y2="584.7983">
			<stop offset="0" style="stop-color:#000000" />
			<stop offset="1" style="stop-color:#000000;stop-opacity:0" />
		</linearGradient>
		<path id="rect3587" sodipodi:nodetypes="cccc" inkscape:transform-center-y="94.884564" fill="url(#rect3587_1_)" d="M298.525,297.894c0,0,22.856,286.904,22.427,286.904h-44.946C275.576,584.798,298.095,297.894,298.525,297.894z" />
		<linearGradient id="path3596_1_" gradientUnits="userSpaceOnUse" x1="298.4785" y1="297.895" x2="441.9302" y2="546.3606">
			<stop offset="0" style="stop-color:#000000" />
			<stop offset="1" style="stop-color:#000000;stop-opacity:0" />
		</linearGradient>
		<path id="path3596" inkscape:transform-center-x="-53.892138" sodipodi:nodetypes="cccc" inkscape:transform-center-y="85.881027" fill="url(#path3596_1_)" d="M298.52,297.872c0,0,163.246,237.035,162.873,237.252l-38.925,22.474C422.095,557.812,298.147,298.086,298.52,297.872z" />
		<linearGradient id="path3598_1_" gradientUnits="userSpaceOnUse" x1="298.4795" y1="297.895" x2="155.0278" y2="49.4295">
			<stop offset="0" style="stop-color:#000000" />
			<stop offset="1" style="stop-color:#000000;stop-opacity:0" />
		</linearGradient>
		<path id="path3598" inkscape:transform-center-x="53.89214" sodipodi:nodetypes="cccc" inkscape:transform-center-y="-85.881026" fill="url(#path3598_1_)" d="M298.438,297.918c0,0-163.246-237.038-162.873-237.251l38.925-22.474C174.863,37.979,298.811,297.702,298.438,297.918z" />
		<linearGradient id="path3600_1_" gradientUnits="userSpaceOnUse" x1="298.479" y1="297.8945" x2="546.9442" y2="154.4431">
			<stop offset="0" style="stop-color:#000000" />
			<stop offset="1" style="stop-color:#000000;stop-opacity:0" />
		</linearGradient>
		<path id="path3600" inkscape:transform-center-x="-85.881026" sodipodi:nodetypes="cccc" inkscape:transform-center-y="-53.892133" fill="url(#path3600_1_)" d="M298.456,297.854c0,0,237.035-163.246,237.252-162.873l22.472,38.925C558.396,174.279,298.67,298.227,298.456,297.854z" />
		<linearGradient id="path3602_1_" gradientUnits="userSpaceOnUse" x1="298.479" y1="297.8955" x2="50.0136" y2="441.347">
			<stop offset="0" style="stop-color:#000000" />
			<stop offset="1" style="stop-color:#000000;stop-opacity:0" />
		</linearGradient>
		<path id="path3602" inkscape:transform-center-x="85.881028" sodipodi:nodetypes="cccc" inkscape:transform-center-y="53.892143" fill="url(#path3602_1_)" d="M298.502,297.936c0,0-237.038,163.246-237.251,162.873l-22.474-38.925C38.562,421.511,298.288,297.563,298.502,297.936z" />
		<linearGradient id="path3604_1_" gradientUnits="userSpaceOnUse" x1="298.4795" y1="297.8945" x2="546.9442" y2="441.3457">
			<stop offset="0" style="stop-color:#000000" />
			<stop offset="1" style="stop-color:#000000;stop-opacity:0" />
		</linearGradient>
		<path id="path3604" inkscape:transform-center-x="-85.896302" sodipodi:nodetypes="cccc" inkscape:transform-center-y="53.865872" fill="url(#path3604_1_)" d="M298.502,297.854c0,0,259.894,123.656,259.678,124.029l-22.472,38.925C535.491,461.182,298.288,298.227,298.502,297.854z" />
		<linearGradient id="path3606_1_" gradientUnits="userSpaceOnUse" x1="298.4795" y1="297.896" x2="50.013" y2="154.4439">
			<stop offset="0" style="stop-color:#000000" />
			<stop offset="1" style="stop-color:#000000;stop-opacity:0" />
		</linearGradient>
		<path id="path3606" inkscape:transform-center-x="85.896306" sodipodi:nodetypes="cccc" inkscape:transform-center-y="-53.865874" fill="url(#path3606_1_)" d="M298.456,297.936c0,0-259.894-123.656-259.68-124.029l22.474-38.925C61.464,134.609,298.67,297.563,298.456,297.936z" />
		<linearGradient id="path3608_1_" gradientUnits="userSpaceOnUse" x1="298.4785" y1="297.8945" x2="441.9303" y2="49.4288">
			<stop offset="0" style="stop-color:#000000" />
			<stop offset="1" style="stop-color:#000000;stop-opacity:0" />
		</linearGradient>
		<path id="path3608" inkscape:transform-center-x="-53.865868" sodipodi:nodetypes="cccc" inkscape:transform-center-y="-85.8963" fill="url(#path3608_1_)" d="M298.438,297.872c0,0,123.656-259.894,124.029-259.68l38.925,22.474C461.766,60.88,298.811,298.086,298.438,297.872z" />
		<linearGradient id="path3610_1_" gradientUnits="userSpaceOnUse" x1="298.48" y1="297.8945" x2="155.0282" y2="546.3603">
			<stop offset="0" style="stop-color:#000000" />
			<stop offset="1" style="stop-color:#000000;stop-opacity:0" />
		</linearGradient>
		<path id="path3610" inkscape:transform-center-x="53.865875" sodipodi:nodetypes="cccc" inkscape:transform-center-y="85.896306" fill="url(#path3610_1_)" d="M298.52,297.918c0,0-123.656,259.894-124.029,259.68l-38.925-22.474C135.193,534.907,298.147,297.704,298.52,297.918z" />
		<linearGradient id="path3612_1_" gradientUnits="userSpaceOnUse" x1="298.478" y1="297.895" x2="585.3818" y2="297.895">
			<stop offset="0" style="stop-color:#000000" />
			<stop offset="1" style="stop-color:#000000;stop-opacity:0" />
		</linearGradient>
		<path id="path3612" inkscape:transform-center-x="-94.884566" sodipodi:nodetypes="cccc" fill="url(#path3612_1_)" d="M298.478,297.849c0,0,286.904-22.857,286.904-22.427v44.946C585.382,320.798,298.478,298.279,298.478,297.849z" />
		<linearGradient id="path3614_1_" gradientUnits="userSpaceOnUse" x1="298.478" y1="297.895" x2="11.5762" y2="297.8951">
			<stop offset="0" style="stop-color:#000000" />
			<stop offset="1" style="stop-color:#000000;stop-opacity:0" />
		</linearGradient>
		<path id="path3614" inkscape:transform-center-x="94.884565" sodipodi:nodetypes="cccc" fill="url(#path3614_1_)" d="M298.478,297.941c0,0-286.902,22.856-286.902,22.427v-44.946C11.576,274.992,298.478,297.511,298.478,297.941z" />
		<linearGradient id="path3616_1_" gradientUnits="userSpaceOnUse" x1="298.479" y1="297.894" x2="298.479" y2="10.9922">
			<stop offset="0" style="stop-color:#000000" />
			<stop offset="1" style="stop-color:#000000;stop-opacity:0" />
		</linearGradient>
		<path id="path3616" sodipodi:nodetypes="cccc" inkscape:transform-center-y="-94.884565" fill="url(#path3616_1_)" d="M298.433,297.894c0,0-22.857-286.902-22.427-286.902h44.946C321.382,10.992,298.863,297.894,298.433,297.894z" />
		<linearGradient id="path3628_1_" gradientUnits="userSpaceOnUse" x1="298.479" y1="297.895" x2="501.3496" y2="500.7656">
			<stop offset="0" style="stop-color:#000000" />
			<stop offset="1" style="stop-color:#000000;stop-opacity:0" />
		</linearGradient>
		<path id="path3628" inkscape:transform-center-x="-72.359837" sodipodi:nodetypes="cccc" inkscape:transform-center-y="72.338291" fill="url(#path3628_1_)" d="M298.512,297.862c0,0,219.034,186.709,218.729,187.012l-31.782,31.782C485.155,516.962,298.207,298.166,298.512,297.862z" />
		<linearGradient id="path3630_1_" gradientUnits="userSpaceOnUse" x1="298.479" y1="297.895" x2="95.6084" y2="95.0244">
			<stop offset="0" style="stop-color:#000000" />
			<stop offset="1" style="stop-color:#000000;stop-opacity:0" />
		</linearGradient>
		<path id="path3630" inkscape:transform-center-x="72.359843" sodipodi:nodetypes="cccc" inkscape:transform-center-y="-72.338293" fill="url(#path3630_1_)" d="M298.446,297.928c0,0-219.034-186.708-218.73-187.012L111.5,79.132C111.803,78.829,298.75,297.623,298.446,297.928z" />
		<linearGradient id="path3632_1_" gradientUnits="userSpaceOnUse" x1="298.479" y1="297.895" x2="501.3499" y2="95.0241">
			<stop offset="0" style="stop-color:#000000" />
			<stop offset="1" style="stop-color:#000000;stop-opacity:0" />
		</linearGradient>
		<path id="path3632" inkscape:transform-center-x="-72.338292" sodipodi:nodetypes="cccc" inkscape:transform-center-y="-72.359832" fill="url(#path3632_1_)" d="M298.446,297.862c0,0,186.709-219.034,187.012-218.73l31.782,31.784C517.546,111.219,298.75,298.166,298.446,297.862z" />
		<linearGradient id="path3634_1_" gradientUnits="userSpaceOnUse" x1="298.479" y1="297.895" x2="95.6081" y2="500.766">
			<stop offset="0" style="stop-color:#000000" />
			<stop offset="1" style="stop-color:#000000;stop-opacity:0" />
		</linearGradient>
		<path id="path3634" inkscape:transform-center-x="72.338294" sodipodi:nodetypes="cccc" inkscape:transform-center-y="72.359851" fill="url(#path3634_1_)" d="M298.512,297.928c0,0-186.708,219.034-187.012,218.729l-31.784-31.782C79.413,484.571,298.207,297.623,298.512,297.928z" />
		<linearGradient id="path3636_1_" gradientUnits="userSpaceOnUse" x1="298.479" y1="297.8945" x2="575.6073" y2="372.1508">
			<stop offset="0" style="stop-color:#000000" />
			<stop offset="1" style="stop-color:#000000;stop-opacity:0" />
		</linearGradient>
		<path id="path3636" inkscape:transform-center-x="-93.579066" sodipodi:nodetypes="cccc" inkscape:transform-center-y="31.722724" fill="url(#path3636_1_)" d="M298.49,297.851c0,0,283.044,52.176,282.933,52.593l-11.634,43.415C569.678,394.274,298.379,298.267,298.49,297.851z" />
		<linearGradient id="path3638_1_" gradientUnits="userSpaceOnUse" x1="298.4785" y1="297.895" x2="21.3521" y2="223.6393">
			<stop offset="0" style="stop-color:#000000" />
			<stop offset="1" style="stop-color:#000000;stop-opacity:0" />
		</linearGradient>
		<path id="path3638" inkscape:transform-center-x="93.579069" sodipodi:nodetypes="cccc" inkscape:transform-center-y="-31.72273" fill="url(#path3638_1_)" d="M298.466,297.939c0,0-283.042-52.176-282.931-52.592l11.634-43.416C27.28,201.515,298.579,297.523,298.466,297.939z" />
		<linearGradient id="path3640_1_" gradientUnits="userSpaceOnUse" x1="298.4795" y1="297.8945" x2="372.7353" y2="20.7681">
			<stop offset="0" style="stop-color:#000000" />
			<stop offset="1" style="stop-color:#000000;stop-opacity:0" />
		</linearGradient>
		<path id="path3640" inkscape:transform-center-x="-31.722722" sodipodi:nodetypes="cccc" inkscape:transform-center-y="-93.579059" fill="url(#path3640_1_)" d="M298.435,297.882c0,0,52.176-283.042,52.593-282.931l43.415,11.634C394.858,26.696,298.851,297.995,298.435,297.882z" />
		<linearGradient id="path3642_1_" gradientUnits="userSpaceOnUse" x1="298.481" y1="297.894" x2="224.2245" y2="575.0228">
			<stop offset="0" style="stop-color:#000000" />
			<stop offset="1" style="stop-color:#000000;stop-opacity:0" />
		</linearGradient>
		<path id="path3642" inkscape:transform-center-x="31.722729" sodipodi:nodetypes="cccc" inkscape:transform-center-y="93.579069" fill="url(#path3642_1_)" d="M298.523,297.906c0,0-52.178,283.044-52.592,282.933l-43.416-11.634C202.099,569.094,298.107,297.795,298.523,297.906z" />
		<linearGradient id="path3644_1_" gradientUnits="userSpaceOnUse" x1="298.4785" y1="297.8965" x2="575.6063" y2="223.6403">
			<stop offset="0" style="stop-color:#000000" />
			<stop offset="1" style="stop-color:#000000;stop-opacity:0" />
		</linearGradient>
		<path id="path3644" inkscape:transform-center-x="-93.571141" sodipodi:nodetypes="cccc" inkscape:transform-center-y="-31.751527" fill="url(#path3644_1_)" d="M298.466,297.851c0,0,271.211-96.335,271.323-95.919l11.634,43.416C581.534,245.761,298.579,298.267,298.466,297.851z" />
		<linearGradient id="path3646_1_" gradientUnits="userSpaceOnUse" x1="298.4785" y1="297.896" x2="21.3521" y2="372.1517">
			<stop offset="0" style="stop-color:#000000" />
			<stop offset="1" style="stop-color:#000000;stop-opacity:0" />
		</linearGradient>
		<path id="path3646" inkscape:transform-center-x="93.571141" sodipodi:nodetypes="cccc" inkscape:transform-center-y="31.751519" fill="url(#path3646_1_)" d="M298.49,297.939c0,0-271.21,96.335-271.321,95.919l-11.634-43.415C15.424,350.026,298.379,297.523,298.49,297.939z" />
		<linearGradient id="path3648_1_" gradientUnits="userSpaceOnUse" x1="298.4795" y1="297.894" x2="224.2239" y2="20.7686">
			<stop offset="0" style="stop-color:#000000" />
			<stop offset="1" style="stop-color:#000000;stop-opacity:0" />
		</linearGradient>
		<path id="path3648" inkscape:transform-center-x="31.751521" sodipodi:nodetypes="cccc" inkscape:transform-center-y="-93.571141" fill="url(#path3648_1_)" d="M298.435,297.906c0,0-96.335-271.21-95.919-271.321l43.416-11.634C246.345,14.84,298.851,297.795,298.435,297.906z" />
		<linearGradient id="path3650_1_" gradientUnits="userSpaceOnUse" x1="298.4785" y1="297.8945" x2="372.7348" y2="575.0228">
			<stop offset="0" style="stop-color:#000000" />
			<stop offset="1" style="stop-color:#000000;stop-opacity:0" />
		</linearGradient>
		<path id="path3650" inkscape:transform-center-x="-31.751521" sodipodi:nodetypes="cccc" inkscape:transform-center-y="93.571146" fill="url(#path3650_1_)" d="M298.523,297.882c0,0,96.335,271.211,95.919,271.323l-43.415,11.634C350.61,580.95,298.107,297.995,298.523,297.882z" />
	</g>
</svg>
