<svg viewBox="0 0 568 124" version="1.1" xmlns="http://www.w3.org/2000/svg">
    <g>
        <path d="M0.555664062,15.9238281 C0.555664062,15.080725 2.01300626,13.5029412 4.92773438,11.1904297 C12.6842836,5.02373219 20.007127,1.94042969 26.8964844,1.94042969 C33.4486005,1.94042969 36.7366535,4.20472996 36.7607422,8.73339844 C36.7607422,11.8408358 33.9664993,15.7190523 28.3779297,20.3681641 C30.4495546,20.0309228 32.2561772,19.8502605 33.7978516,19.8261719 C36.1103631,19.8261719 38.2060453,20.2958937 40.0849609,21.2353516 C42.6383591,22.5120507 43.9150391,24.2945849 43.9150391,26.5830078 C43.9150391,30.4853711 40.8076483,34.6767354 34.5927734,39.1572266 C29.1246471,43.1077671 24.2708545,45.3720674 20.03125,45.9501953 C14.755833,46.6487665 11.7688837,46.9980469 11.0703125,46.9980469 C6.32484606,46.9980469 3.95214844,45.3961749 3.95214844,42.1923828 C3.95214844,40.2171125 4.77115066,38.7115937 6.40917969,37.6757812 C7.10775089,37.6757812 7.50520785,37.7239579 7.6015625,37.8203125 C7.69791715,37.9166671 7.84244695,38.3141241 8.03515625,39.0126953 C6.99934378,40.1930398 6.48144531,41.252925 6.48144531,42.1923828 C6.48144531,43.2763726 8.03514071,43.8183594 11.1425781,43.8183594 C15.7916899,43.8183594 20.8743214,42.6621209 26.390625,40.3496094 C29.2089985,39.1692649 32.2200361,37.1940243 35.4238281,34.4238281 C39.2780141,31.1718587 41.193034,28.5823664 41.1689453,26.6552734 C41.1689453,24.2464072 38.7842035,23.029948 34.0146484,23.0058594 C30.6181471,23.0058594 27.0651227,23.6562435 23.3554688,24.9570312 C23.3072914,24.9570312 23.2229824,24.9931637 23.1025391,25.0654297 C22.9820958,25.1376957 22.5725946,25.3304021 21.8740234,25.6435547 C21.1754522,25.9567073 20.2360085,26.3662084 19.0556641,26.8720703 C16.9840391,27.8115281 15.6591826,28.28125 15.0810547,28.28125 C13.7561783,28.28125 13.0817058,28.0283228 13.0576172,27.5224609 C13.0576172,26.8238897 14.1175024,25.8603577 16.2373047,24.6318359 C27.5830645,18.1760745 33.2558594,12.6357653 33.2558594,8.01074219 C33.2558594,6.92675239 32.6175194,6.03548526 31.3408203,5.33691406 C30.2568305,4.73469751 28.8958415,4.43359375 27.2578125,4.43359375 C20.6093418,4.43359375 13.3105866,8.13114792 5.36132812,15.5263672 C3.77147643,17.0439529 2.75976779,17.8147785 2.32617188,17.8388672 C1.14582743,17.8388672 0.555664062,17.2005272 0.555664062,15.9238281 L0.555664062,15.9238281 Z M6.91503906,31.3886719 C6.91503906,29.172515 7.45702583,25.3424751 8.54101562,19.8984375 C9.81771472,13.73174 11.0823505,10.6484375 12.3349609,10.6484375 C13.5153054,10.6484375 14.1054688,11.2747333 14.1054688,12.5273437 C14.1054688,13.1295603 13.8766299,13.7919886 13.4189453,14.5146484 C11.1064338,18.9469623 9.95019531,25.1858322 9.95019531,33.2314453 C9.95019531,36.6279467 11.1666545,38.6995405 13.5996094,39.4462891 C13.985028,39.8317077 14.1777344,40.180988 14.1777344,40.4941406 C14.1777344,41.1927118 13.6116593,41.529948 12.4794922,41.5058594 C10.7451085,41.5058594 9.33594292,40.1569145 8.25195312,37.4589844 C7.36067263,35.2910048 6.91503906,33.2675875 6.91503906,31.3886719 L6.91503906,31.3886719 Z M46.421051,41.9033203 C46.421051,38.8922375 47.9988347,34.9176679 51.1544495,29.9794922 C54.1173549,25.3303804 57.4776729,21.4039874 61.2355042,18.2001953 C64.0779663,15.7913291 66.378399,14.5869141 68.1368713,14.5869141 C68.8113539,14.5869141 69.4135614,14.7555322 69.943512,15.0927734 C70.8347925,15.69499 71.280426,16.8873609 71.280426,18.6699219 C71.280426,20.7897241 70.5457329,21.9218743 69.0763245,22.0664062 C68.040512,22.1627609 67.5226135,21.8134805 67.5226135,21.0185547 C67.5226135,20.8258454 67.5467018,20.7054039 67.5948792,20.6572266 C68.0284751,19.5250594 68.2452698,18.5374391 68.2452698,17.6943359 C68.2452698,17.2125627 68.1730049,16.9596355 68.0284729,16.9355469 C65.7159613,17.3691428 61.9702306,20.9703438 56.7911682,27.7392578 C51.5639285,34.5563492 48.9503479,39.2174354 48.9503479,41.7226562 C48.9503479,42.6139367 49.3357607,43.0595703 50.1065979,43.0595703 C52.0818682,43.0595703 55.2976563,40.3978131 59.7540588,35.0742187 L64.7765198,29.0039062 C66.0532189,27.1731679 66.8120003,25.4749427 67.052887,23.9091797 C67.1974189,22.8733672 67.7394057,22.3554687 68.6788635,22.3554687 C69.9073853,22.3554687 70.5336811,22.8372348 70.5577698,23.8007812 C70.5577698,23.9934905 70.5336815,24.1982411 70.4855042,24.4150391 C69.3051597,30.4853819 68.7029522,34.1588478 68.6788635,35.4355469 C68.6788635,37.7962358 69.2328944,39.1331365 70.3409729,39.4462891 C70.6782142,39.4944664 71.063627,39.4222015 71.4972229,39.2294922 C71.8344642,39.0367829 72.0392147,38.8320323 72.1114807,38.6152344 C72.3282787,37.5794219 72.918442,37.0615234 73.8819885,37.0615234 C74.4360278,37.0615234 74.7009991,37.3867155 74.6769104,38.0371094 C74.6769104,38.3743506 74.6287338,38.6754544 74.5323792,38.9404297 C73.7856306,40.8193453 72.4607741,41.7467449 70.5577698,41.7226562 C70.1241739,41.7226562 69.6062754,41.6022147 69.0040588,41.3613281 C66.7879019,40.518225 65.6798401,37.9287326 65.6798401,33.5927734 L65.6798401,32.1113281 C63.5118605,35.0742336 60.9464565,37.9166531 57.983551,40.6386719 C54.3220744,43.8906413 51.4796549,45.5166016 49.4562073,45.5166016 C48.8058134,45.5166016 48.2397383,45.3479835 47.7579651,45.0107422 C46.8666846,44.2639937 46.421051,43.2281967 46.421051,41.9033203 L46.421051,41.9033203 Z M74.9788208,36.7001953 C74.9788208,31.7138423 75.7376023,24.6559701 77.255188,15.5263672 C78.893217,5.36095178 80.3987358,0.290364463 81.7717896,0.314453125 C82.952134,0.314453125 83.5422974,0.880528193 83.5422974,2.01269531 L82.2776489,5.91503906 C81.4345458,8.54070323 80.8202941,10.9374892 80.4348755,13.1054687 C78.9654671,21.6810325 78.158509,28.7148163 78.0139771,34.2070312 L78.3030396,33.4482422 C82.1090482,24.1741073 85.5657193,19.5371094 88.6731567,19.5371094 C91.2988209,19.5371094 92.9488695,23.3912375 93.6233521,31.0996094 C93.8160613,33.7734509 94.0810327,36.2786342 94.4182739,38.6152344 C94.7796039,40.5423273 95.2975023,41.5058594 95.9719849,41.5058594 C96.6223787,41.5058594 97.1402772,41.313153 97.5256958,40.9277344 C97.9592917,40.4941385 98.2844838,40.2773437 98.5012817,40.2773437 C99.1998529,40.2773437 99.5491333,40.61458 99.5491333,41.2890625 C99.5491333,41.9394564 99.0553231,42.5296197 98.067688,43.0595703 C97.2727621,43.4931662 96.5742014,43.7220051 95.9719849,43.7460937 C93.0572567,43.7460937 91.23859,39.9160539 90.5159302,32.2558594 C90.4195755,31.3164016 90.1425601,28.8593949 89.6848755,24.8847656 C89.3958115,22.9576727 88.9742663,21.9941406 88.4202271,21.9941406 C87.0471733,21.9941406 85.3007715,24.1379994 83.1809692,28.4257812 C80.2662411,34.2552375 78.5921042,39.6991935 78.1585083,44.7578125 C78.1585083,45.0950538 77.9296694,45.4443341 77.4719849,45.8056641 C77.0865663,46.1429053 76.6951314,46.3115234 76.2976685,46.3115234 C75.9002055,46.3115234 75.6292121,46.118817 75.4846802,45.7333984 C75.1474389,44.8902953 74.9788208,41.8792577 74.9788208,36.7001953 L74.9788208,36.7001953 Z M119.989868,38.8681641 C119.989868,35.3993967 122.808199,30.292677 128.444946,23.5478516 C133.96125,16.8993808 138.056261,13.5631512 140.730103,13.5390625 C142.946259,13.5390625 144.054321,15.0445813 144.054321,18.0556641 C144.054321,20.1754663 143.415981,21.2353516 142.139282,21.2353516 C141.10347,21.2353516 140.585571,20.6692765 140.585571,19.5371094 L140.585571,19.03125 C140.585571,18.9830727 140.60966,18.9108078 140.657837,18.8144531 C140.706014,18.7180985 140.766235,18.5555024 140.838501,18.3266602 C140.910767,18.0978179 140.970988,17.8870452 141.019165,17.6943359 L141.380493,16.4296875 C141.380493,16.0924462 141.235963,15.9238281 140.946899,15.9238281 C139.959264,15.9238281 137.39386,18.1158635 133.25061,22.5 C131.733025,24.138029 129.757784,26.7275214 127.324829,30.2685547 C124.313746,34.6526912 122.808228,37.8323469 122.808228,39.8076172 C122.808228,40.0485038 122.98889,40.1689453 123.35022,40.1689453 C125.132781,40.1689453 128.288348,38.0491748 132.817017,33.8095703 C137.104798,29.8108524 139.549761,26.9323005 140.151978,25.1738281 L140.730103,22.7167969 C141.115521,21.8255164 141.753861,21.3798828 142.645142,21.3798828 C143.921841,21.3798828 144.560181,22.0784435 144.560181,23.4755859 L143.90979,23.4755859 C144.150677,23.4274086 144.331339,23.4274086 144.451782,23.4755859 C144.572226,23.5237633 144.608358,23.5960282 144.560181,23.6923828 L144.343384,24.4150391 C143.452103,27.4261218 142.669234,30.485336 141.994751,33.5927734 C140.308545,41.03617 139.465454,47.202775 139.465454,52.0927734 C139.465454,53.6585365 139.694293,55.0677021 140.151978,56.3203125 C140.802371,58.3437601 141.802036,59.3554687 143.151001,59.3554687 C144.331345,59.3554687 145.222613,58.7893937 145.824829,57.6572266 C146.427046,56.5250594 146.872679,55.9589844 147.161743,55.9589844 C147.908492,55.9589844 148.28186,56.3443972 148.28186,57.1152344 C148.28186,58.3437561 147.667609,59.4156855 146.439087,60.3310547 C145.30692,61.1741579 144.210902,61.583659 143.151001,61.5595703 C140.742135,61.5595703 138.89938,60.2347138 137.622681,57.5849609 C136.779577,55.657868 136.358032,53.5862741 136.358032,51.3701172 C136.358032,46.9378034 137.369741,39.9762844 139.393188,30.4853516 L139.393188,30.2685547 C132.792895,38.6995864 127.734352,42.9150391 124.217407,42.9150391 L123.494751,42.9150391 C122.507116,42.9150391 121.639937,42.3971406 120.893188,41.3613281 C120.290972,40.5423136 119.989868,39.7112672 119.989868,38.8681641 L119.989868,38.8681641 Z M148.114044,37.6757812 C148.114044,36.4231708 148.788517,33.0146763 150.137482,27.4501953 C151.655067,21.1389658 152.955836,17.9352218 154.039825,17.8388672 C154.425244,17.8388672 154.919054,18.0074853 155.521271,18.3447266 C156.003044,18.6337905 156.255971,18.9830709 156.28006,19.3925781 C156.28006,19.4889328 156.171662,19.7900365 155.954865,20.2958984 L155.37674,21.921875 C152.365657,30.1120201 150.860138,35.7366383 150.860138,38.7958984 C150.860138,40.7711687 151.209418,41.7467449 151.90799,41.7226562 C152.847447,41.7226562 154.172304,40.6386827 155.882599,38.4707031 C157.857869,36.0136596 159.760845,32.9785337 161.591583,29.3652344 C163.711386,25.2701618 164.771271,22.1386827 164.771271,19.9707031 C164.771271,19.2721319 165.00011,18.5856154 165.457794,17.9111328 C165.89139,17.2607389 166.409289,16.9355469 167.011505,16.9355469 C168.19185,16.9355469 168.782013,17.5377544 168.782013,18.7421875 C168.782013,19.0794288 168.583284,20.2115789 168.185822,22.1386719 C167.788359,24.0657648 167.58963,26.0891821 167.58963,28.2089844 C167.58963,35.5560263 168.72178,39.2294922 170.986115,39.2294922 C171.540154,39.2294922 172.130317,38.9043001 172.756622,38.2539062 C173.045686,38.0130196 173.443143,37.6998717 173.949005,37.3144531 C174.503044,37.748049 174.78006,38.1093736 174.78006,38.3984375 C174.78006,39.2415407 174.177852,40.0123663 172.973419,40.7109375 C171.985784,41.2649767 171.227003,41.529948 170.697052,41.5058594 C167.035575,41.5058594 164.915805,37.4951573 164.337677,29.4736328 L164.265411,28.859375 C161.808368,33.99026 160.182408,37.194004 159.387482,38.4707031 C156.834084,42.3730664 154.18437,44.3242187 151.438263,44.3242187 C149.222106,44.3242187 148.114044,42.1080951 148.114044,37.6757812 L148.114044,37.6757812 Z M177.249939,19.609375 C177.249939,19.2480451 177.478778,18.8746764 177.936462,18.4892578 C179.213161,17.5016227 179.851501,15.5384262 179.851501,12.5996094 C179.851501,11.8046835 179.827413,11.2325864 179.779236,10.8833008 C179.731059,10.5340152 179.971942,10.1425803 180.501892,9.70898437 C181.104109,9.27538846 181.682228,9.0465496 182.236267,9.02246094 C183.127548,9.02246094 183.561137,9.67284506 183.537048,10.9736328 C183.537048,12.3707752 183.103459,13.9967355 182.236267,15.8515625 C181.393164,17.7304781 180.297146,19.1516879 178.948181,20.1152344 C178.707295,20.3079437 178.442323,20.416341 178.153259,20.4404297 C177.551043,20.4404297 177.249939,20.1634142 177.249939,19.609375 L177.249939,19.609375 Z M185.609467,36.1943359 C185.850353,32.5810366 187.729241,28.20901 191.246185,23.078125 C195.100371,17.4654667 198.605219,14.6591797 201.760834,14.6591797 C202.748469,14.6591797 203.531339,15.1529899 204.109467,16.140625 C204.543062,16.8873735 204.771901,17.646155 204.79599,18.4169922 C204.79599,20.6331491 203.80837,23.270818 201.833099,26.3300781 C199.568765,29.9433774 196.931096,31.75 193.920013,31.75 C192.498782,31.75 191.402765,31.4488962 190.631927,30.8466797 L190.559662,30.7021484 C190.174243,31.0393897 189.704521,32.2076723 189.150482,34.2070312 C188.668709,36.0377696 188.427826,37.6878182 188.427826,39.1572266 C188.427826,40.9879649 189.656329,41.9033203 192.113373,41.9033203 C194.474062,41.9033203 197.19604,40.5423313 200.279388,37.8203125 C203.290471,35.146471 205.386153,32.4365372 206.566498,29.6904297 L207.650482,29.6904297 C208.035901,30.0758483 208.228607,30.3889962 208.228607,30.6298828 C208.228607,30.7021488 208.216563,30.7744137 208.192474,30.8466797 C206.867598,34.7490429 204.567165,38.037096 201.291107,40.7109375 C198.255936,43.2161584 195.22081,44.46875 192.185638,44.46875 C189.969482,44.46875 188.271256,43.7099685 187.090912,42.1923828 C186.079188,40.8434177 185.573334,39.1211042 185.573334,37.0253906 C185.573334,36.7604153 185.585378,36.4833999 185.609467,36.1943359 L185.609467,36.1943359 Z M191.535248,28.7871094 C191.535248,29.027996 192.077235,29.1725258 193.161224,29.2207031 L193.305756,29.2207031 C195.136494,29.2207031 197.087646,27.9199349 199.159271,25.3183594 C201.279074,22.6926952 202.338959,20.3199976 202.338959,18.2001953 C202.338959,17.4775354 202.11012,17.1162109 201.652435,17.1162109 C201.556081,17.1162109 201.435639,17.1402992 201.291107,17.1884766 C200.351649,17.4293632 199.544691,17.97135 198.870209,18.8144531 C193.98021,24.4993774 191.535248,27.8235629 191.535248,28.7871094 L191.535248,28.7871094 Z M209.144775,28.7871094 C209.144775,26.4264205 210.975486,23.4635595 214.636963,19.8984375 C218.250262,16.3574042 221.333565,14.5869141 223.886963,14.5869141 C224.537357,14.5869141 225.392491,14.8518854 226.452393,15.3818359 C227.632737,16.0563185 228.2229,16.8030558 228.2229,17.6220703 C228.2229,18.6097055 227.813399,19.1035156 226.994385,19.1035156 C226.849853,19.1035156 226.404219,18.8987651 225.657471,18.4892578 C224.838456,18.0556619 224.248293,17.8388672 223.886963,17.8388672 L223.5979,17.8388672 C222.032137,17.8388672 219.876234,18.9951056 217.130127,21.3076172 C214.167222,23.812838 212.685791,25.9807851 212.685791,27.8115234 C212.685791,28.7509813 214.420149,29.2207031 217.888916,29.2207031 C224.489209,29.2207031 227.789307,31.0755023 227.789307,34.7851562 C227.789307,37.4108204 226.307876,39.7594297 223.344971,41.8310547 C220.622952,43.7099703 217.961195,44.6373699 215.359619,44.6132812 C214.227452,44.6132812 213.143478,44.2519567 212.107666,43.5292969 C210.927322,42.734371 210.337158,41.6744858 210.337158,40.3496094 C210.337158,39.9160135 210.578041,39.2656293 211.059814,38.3984375 C211.613854,37.5553343 212.179929,37.1458332 212.758057,37.1699219 C212.902589,37.1699219 213.083251,37.2180985 213.300049,37.3144531 C213.251872,38.109379 213.095298,38.7236306 212.830322,39.1572266 C212.68579,39.3981132 212.613525,39.6630845 212.613525,39.9521484 C212.613525,41.0361382 213.251865,41.578125 214.528564,41.578125 C216.40748,41.578125 218.635648,40.939785 221.213135,39.6630859 C224.031508,38.2659435 225.440674,36.784513 225.440674,35.21875 C225.440674,34.2792922 224.970952,33.4964224 224.031494,32.8701172 C223.21248,32.3401666 222.321213,32.0390629 221.357666,31.9667969 L214.528564,31.75 C213.34822,31.6536454 212.264246,31.4127623 211.276611,31.0273437 C209.85538,30.4251272 209.144775,29.6783899 209.144775,28.7871094 L209.144775,28.7871094 Z M231.34317,26.3300781 C231.34317,25.5833296 233.294323,24.2825614 237.196686,22.4277344 L237.847076,22.2109375 C237.895254,21.9218736 238.172269,19.5491759 238.678131,15.0927734 C239.06355,11.8889814 239.846419,10.2871094 241.026764,10.2871094 C242.014399,10.2871094 242.556386,10.9495376 242.65274,12.2744141 L241.171295,21.0185547 C242.303462,20.7776681 243.568098,20.6572266 244.96524,20.6572266 C245.663812,20.6572266 246.47077,20.8981096 247.386139,21.3798828 C248.614661,22.078454 249.228912,22.8733679 249.228912,23.7646484 C249.228912,23.8610031 249.180736,24.0055329 249.084381,24.1982422 L249.084381,24.2705078 L248.93985,24.5595703 L248.650787,24.7041016 L248.578522,24.7041016 C248.385812,24.8004562 248.217194,24.860677 248.072662,24.8847656 C247.976308,24.8847656 247.795645,24.75228 247.53067,24.4873047 C247.097074,23.3551376 246.314204,22.7890625 245.182037,22.7890625 C244.796619,22.7890625 244.375073,22.8613274 243.917389,23.0058594 C242.929754,23.246746 241.918045,23.6923796 240.882233,24.3427734 L240.882233,24.8847656 C240.641346,26.7636813 240.520905,28.7750544 240.520905,30.9189453 C240.520905,31.7861371 240.544993,32.653316 240.59317,33.5205078 C240.809968,39.7353826 242.219134,42.8427734 244.820709,42.8427734 C245.567458,42.8427734 246.229886,42.4694048 246.808014,41.7226562 C247.458408,40.9277304 247.879953,40.5423176 248.072662,40.5664062 C248.867588,40.5664062 249.253001,40.9277308 249.228912,41.6503906 C249.228912,42.4934938 248.518307,43.2884077 247.097076,44.0351562 C245.916732,44.6373728 245.073641,44.9384766 244.56778,44.9384766 C242.447977,44.9384766 240.749752,43.770194 239.473053,41.4335937 C238.533595,39.6510328 237.96752,37.8082777 237.774811,35.9052734 C237.582101,34.0745351 237.485748,32.1956477 237.485748,30.2685547 C237.485748,28.6305257 237.558013,26.9804771 237.702545,25.3183594 C236.570378,25.703778 234.992594,26.6191334 232.969147,28.0644531 C232.776437,28.2571624 232.547599,28.3535156 232.282623,28.3535156 C231.656318,28.329427 231.34317,27.6549545 231.34317,26.3300781 L231.34317,26.3300781 Z M252.855042,26.4384766 C252.999573,25.7399054 254.709843,25.0172563 257.985901,24.2705078 C260.250235,23.7887346 262.273652,23.4755867 264.056213,23.3310547 C265.525622,23.1865227 266.874567,23.210611 268.103088,23.4033203 C268.994369,23.5960296 270.054254,23.9814424 271.282776,24.5595703 C272.704007,25.3544962 273.330303,26.221675 273.161682,27.1611328 L272.186096,27.9921875 C271.58388,27.7994782 270.788966,27.3779329 269.801331,26.7275391 C269.150937,26.3421205 268.60895,26.0891933 268.175354,25.96875 C267.428605,25.824218 266.645736,25.7519531 265.826721,25.7519531 C264.309135,25.7519531 260.732023,26.5709554 255.095276,28.2089844 C254.709857,28.305339 254.45693,28.3535156 254.336487,28.3535156 C253.20432,28.1608063 252.71051,27.5224664 252.855042,26.4384766 L252.855042,26.4384766 Z M276.39035,36.3388672 C276.39035,32.8700998 277.944046,28.6546472 281.051483,23.6923828 C284.592516,17.9592812 288.37438,15.0927734 292.397186,15.0927734 C293.095757,15.0927734 294.107466,15.3938772 295.432343,15.9960937 C297.214904,16.7669309 298.106171,17.7425071 298.106171,18.9228516 C298.106171,19.2841815 297.925508,19.5852853 297.564178,19.8261719 C297.130583,20.1152358 296.757214,20.2718098 296.444061,20.2958984 C295.962288,20.2958984 295.29986,19.8743532 294.456757,19.03125 C293.613653,18.1881468 292.830784,17.7666016 292.108124,17.7666016 C289.217484,17.7666016 286.254623,20.4283588 283.219452,25.7519531 C280.54561,30.4974196 279.20871,34.1708854 279.20871,36.7724609 C279.20871,39.7353664 280.473346,41.2167969 283.002655,41.2167969 C285.43561,41.2167969 287.868528,40.4098388 290.301483,38.7958984 C292.421285,37.4228447 294.324261,35.447604 296.010468,32.8701172 C296.155,32.6292306 296.347706,32.4967449 296.588593,32.4726562 C296.925834,32.4726562 297.202849,32.6533185 297.419647,33.0146484 C297.660534,33.4482444 297.756887,33.7613923 297.70871,33.9541016 C297.467823,34.7490274 296.142967,36.3388553 293.7341,38.7236328 C291.566121,40.9397897 290.205132,42.1442048 289.651093,42.3369141 C287.338581,43.6136132 285.881239,44.2519531 285.279022,44.2519531 C285.038136,44.2519531 284.743054,44.2760414 284.393768,44.3242187 C284.044483,44.3723961 283.749401,44.3964844 283.508514,44.3964844 C281.07556,44.3964844 279.22076,43.5052172 277.944061,41.7226562 C276.908249,40.2532479 276.39035,38.4586695 276.39035,36.3388672 L276.39035,36.3388672 Z M301.551636,36.1943359 C301.792522,32.5810366 303.67141,28.20901 307.188354,23.078125 C311.04254,17.4654667 314.547388,14.6591797 317.703003,14.6591797 C318.690638,14.6591797 319.473508,15.1529899 320.051636,16.140625 C320.485232,16.8873735 320.714071,17.646155 320.738159,18.4169922 C320.738159,20.6331491 319.750539,23.270818 317.775269,26.3300781 C315.510934,29.9433774 312.873265,31.75 309.862183,31.75 C308.440952,31.75 307.344934,31.4488962 306.574097,30.8466797 L306.501831,30.7021484 C306.116412,31.0393897 305.646691,32.2076723 305.092651,34.2070312 C304.610878,36.0377696 304.369995,37.6878182 304.369995,39.1572266 C304.369995,40.9879649 305.598498,41.9033203 308.055542,41.9033203 C310.416231,41.9033203 313.138209,40.5423313 316.221558,37.8203125 C319.23264,35.146471 321.328323,32.4365372 322.508667,29.6904297 L323.592651,29.6904297 C323.97807,30.0758483 324.170776,30.3889962 324.170776,30.6298828 C324.170776,30.7021488 324.158732,30.7744137 324.134644,30.8466797 C322.809767,34.7490429 320.509334,38.037096 317.233276,40.7109375 C314.198105,43.2161584 311.162979,44.46875 308.127808,44.46875 C305.911651,44.46875 304.213425,43.7099685 303.033081,42.1923828 C302.021357,40.8434177 301.515503,39.1211042 301.515503,37.0253906 C301.515503,36.7604153 301.527547,36.4833999 301.551636,36.1943359 L301.551636,36.1943359 Z M307.477417,28.7871094 C307.477417,29.027996 308.019404,29.1725258 309.103394,29.2207031 L309.247925,29.2207031 C311.078663,29.2207031 313.029815,27.9199349 315.10144,25.3183594 C317.221243,22.6926952 318.281128,20.3199976 318.281128,18.2001953 C318.281128,17.4775354 318.052289,17.1162109 317.594604,17.1162109 C317.49825,17.1162109 317.377808,17.1402992 317.233276,17.1884766 C316.293819,17.4293632 315.48686,17.97135 314.812378,18.8144531 C309.92238,24.4993774 307.477417,27.8235629 307.477417,28.7871094 L307.477417,28.7871094 Z M345.117371,38.8681641 C345.117371,35.3993967 347.935702,30.292677 353.572449,23.5478516 C359.088752,16.8993808 363.183763,13.5631512 365.857605,13.5390625 C368.073762,13.5390625 369.181824,15.0445813 369.181824,18.0556641 C369.181824,20.1754663 368.543484,21.2353516 367.266785,21.2353516 C366.230972,21.2353516 365.713074,20.6692765 365.713074,19.5371094 L365.713074,19.03125 C365.713074,18.9830727 365.737162,18.9108078 365.785339,18.8144531 C365.833517,18.7180985 365.893737,18.5555024 365.966003,18.3266602 C366.038269,18.0978179 366.09849,17.8870452 366.146667,17.6943359 L366.507996,16.4296875 C366.507996,16.0924462 366.363466,15.9238281 366.074402,15.9238281 C365.086767,15.9238281 362.521363,18.1158635 358.378113,22.5 C356.860527,24.138029 354.885286,26.7275214 352.452332,30.2685547 C349.441249,34.6526912 347.93573,37.8323469 347.93573,39.8076172 C347.93573,40.0485038 348.116392,40.1689453 348.477722,40.1689453 C350.260283,40.1689453 353.415851,38.0491748 357.944519,33.8095703 C362.232301,29.8108524 364.677263,26.9323005 365.27948,25.1738281 L365.857605,22.7167969 C366.243024,21.8255164 366.881364,21.3798828 367.772644,21.3798828 C369.049343,21.3798828 369.687683,22.0784435 369.687683,23.4755859 L369.037292,23.4755859 C369.278179,23.4274086 369.458841,23.4274086 369.579285,23.4755859 C369.699728,23.5237633 369.73586,23.5960282 369.687683,23.6923828 L369.470886,24.4150391 C368.579606,27.4261218 367.796736,30.485336 367.122253,33.5927734 C365.436047,41.03617 364.592957,47.202775 364.592957,52.0927734 C364.592957,53.6585365 364.821795,55.0677021 365.27948,56.3203125 C365.929874,58.3437601 366.929538,59.3554687 368.278503,59.3554687 C369.458848,59.3554687 370.350115,58.7893937 370.952332,57.6572266 C371.554548,56.5250594 372.000182,55.9589844 372.289246,55.9589844 C373.035994,55.9589844 373.409363,56.3443972 373.409363,57.1152344 C373.409363,58.3437561 372.795111,59.4156855 371.566589,60.3310547 C370.434422,61.1741579 369.338405,61.583659 368.278503,61.5595703 C365.869637,61.5595703 364.026882,60.2347138 362.750183,57.5849609 C361.90708,55.657868 361.485535,53.5862741 361.485535,51.3701172 C361.485535,46.9378034 362.497243,39.9762844 364.520691,30.4853516 L364.520691,30.2685547 C357.920398,38.6995864 352.861854,42.9150391 349.34491,42.9150391 L348.622253,42.9150391 C347.634618,42.9150391 346.767439,42.3971406 346.020691,41.3613281 C345.418474,40.5423136 345.117371,39.7112672 345.117371,38.8681641 L345.117371,38.8681641 Z M373.241547,37.6757812 C373.241547,36.4231708 373.916019,33.0146763 375.264984,27.4501953 C376.78257,21.1389658 378.083338,17.9352218 379.167328,17.8388672 C379.552746,17.8388672 380.046557,18.0074853 380.648773,18.3447266 C381.130546,18.6337905 381.383474,18.9830709 381.407562,19.3925781 C381.407562,19.4889328 381.299165,19.7900365 381.082367,20.2958984 L380.504242,21.921875 C377.493159,30.1120201 375.98764,35.7366383 375.98764,38.7958984 C375.98764,40.7711687 376.336921,41.7467449 377.035492,41.7226562 C377.97495,41.7226562 379.299806,40.6386827 381.010101,38.4707031 C382.985372,36.0136596 384.888347,32.9785337 386.719086,29.3652344 C388.838888,25.2701618 389.898773,22.1386827 389.898773,19.9707031 C389.898773,19.2721319 390.127612,18.5856154 390.585297,17.9111328 C391.018893,17.2607389 391.536791,16.9355469 392.139008,16.9355469 C393.319352,16.9355469 393.909515,17.5377544 393.909515,18.7421875 C393.909515,19.0794288 393.710787,20.2115789 393.313324,22.1386719 C392.915861,24.0657648 392.717133,26.0891821 392.717133,28.2089844 C392.717133,35.5560263 393.849283,39.2294922 396.113617,39.2294922 C396.667656,39.2294922 397.25782,38.9043001 397.884125,38.2539062 C398.173189,38.0130196 398.570646,37.6998717 399.076508,37.3144531 C399.630547,37.748049 399.907562,38.1093736 399.907562,38.3984375 C399.907562,39.2415407 399.305355,40.0123663 398.100922,40.7109375 C397.113286,41.2649767 396.354505,41.529948 395.824554,41.5058594 C392.163078,41.5058594 390.043307,37.4951573 389.465179,29.4736328 L389.392914,28.859375 C386.93587,33.99026 385.30991,37.194004 384.514984,38.4707031 C381.961586,42.3730664 379.311873,44.3242187 376.565765,44.3242187 C374.349608,44.3242187 373.241547,42.1080951 373.241547,37.6757812 L373.241547,37.6757812 Z M399.053223,36.1943359 C399.294109,32.5810366 401.172997,28.20901 404.689941,23.078125 C408.544127,17.4654667 412.048975,14.6591797 415.20459,14.6591797 C416.192225,14.6591797 416.975095,15.1529899 417.553223,16.140625 C417.986819,16.8873735 418.215657,17.646155 418.239746,18.4169922 C418.239746,20.6331491 417.252126,23.270818 415.276855,26.3300781 C413.012521,29.9433774 410.374852,31.75 407.36377,31.75 C405.942538,31.75 404.846521,31.4488962 404.075684,30.8466797 L404.003418,30.7021484 C403.617999,31.0393897 403.148278,32.2076723 402.594238,34.2070312 C402.112465,36.0377696 401.871582,37.6878182 401.871582,39.1572266 C401.871582,40.9879649 403.100085,41.9033203 405.557129,41.9033203 C407.917818,41.9033203 410.639796,40.5423313 413.723145,37.8203125 C416.734227,35.146471 418.829909,32.4365372 420.010254,29.6904297 L421.094238,29.6904297 C421.479657,30.0758483 421.672363,30.3889962 421.672363,30.6298828 C421.672363,30.7021488 421.660319,30.7744137 421.63623,30.8466797 C420.311354,34.7490429 418.010921,38.037096 414.734863,40.7109375 C411.699692,43.2161584 408.664566,44.46875 405.629395,44.46875 C403.413238,44.46875 401.715012,43.7099685 400.534668,42.1923828 C399.522944,40.8434177 399.01709,39.1211042 399.01709,37.0253906 C399.01709,36.7604153 399.029134,36.4833999 399.053223,36.1943359 L399.053223,36.1943359 Z M404.979004,28.7871094 C404.979004,29.027996 405.520991,29.1725258 406.60498,29.2207031 L406.749512,29.2207031 C408.58025,29.2207031 410.531402,27.9199349 412.603027,25.3183594 C414.72283,22.6926952 415.782715,20.3199976 415.782715,18.2001953 C415.782715,17.4775354 415.553876,17.1162109 415.096191,17.1162109 C414.999837,17.1162109 414.879395,17.1402992 414.734863,17.1884766 C413.795405,17.4293632 412.988447,17.97135 412.313965,18.8144531 C407.423966,24.4993774 404.979004,27.8235629 404.979004,28.7871094 L404.979004,28.7871094 Z M442.799622,20.2236328 C442.799622,19.7418596 443.040505,19.3444026 443.522278,19.03125 C443.907696,18.7903634 444.305153,18.6699219 444.714661,18.6699219 C445.654118,18.6699219 447.183726,21.1991935 449.303528,26.2578125 C449.351705,26.3541671 450.652473,29.78675 453.205872,36.5556641 C453.446758,37.1578806 453.645487,37.6938453 453.802063,38.1635742 C453.958639,38.6333031 454.073059,38.9645173 454.145325,39.1572266 C454.217591,39.3499359 454.229635,39.4462891 454.181458,39.4462891 L455.446106,36.2666016 C457.903149,30.0035494 459.52911,26.1012447 460.324036,24.5595703 C463.094232,19.2841533 465.731901,16.6464844 468.237122,16.6464844 C469.272934,16.6464844 469.790833,17.1162062 469.790833,18.0556641 C469.790833,18.4410827 469.501773,18.7180981 468.923645,18.8867187 C468.779113,18.9348961 468.574362,18.9108078 468.309387,18.8144531 L468.237122,18.8144531 L468.200989,18.8144531 C466.779758,18.8144531 464.672031,21.76527 461.877747,27.6669922 L456.710754,39.9521484 C455.482233,42.8668766 454.542789,44.3242187 453.892395,44.3242187 C453.097469,44.3242187 452.254379,43.0234505 451.363098,40.421875 C450.664527,38.1575408 449.725083,35.3632979 448.544739,32.0390625 C448.062966,30.8105407 446.954904,28.5462405 445.22052,25.2460937 L442.944153,20.8740234 C442.847798,20.5849595 442.799622,20.3681648 442.799622,20.2236328 L442.799622,20.2236328 Z M468.466766,37.0615234 C468.466766,33.5204901 469.321901,29.6061412 471.032196,25.3183594 C472.76658,21.0787548 474.368452,18.9589844 475.83786,18.9589844 C477.210914,18.9589844 477.909475,19.5491477 477.933563,20.7294922 C477.933563,20.9703788 477.536106,21.6328071 476.74118,22.7167969 C473.031526,27.6067953 471.176727,32.1956166 471.176727,36.4833984 C471.176727,40.1448751 472.092083,41.9755859 473.922821,41.9755859 C476.64484,41.9755859 479.354774,39.4342702 482.052704,34.3515625 C484.365215,29.967426 485.533498,26.4625782 485.557587,23.8369141 C485.557587,19.9827281 484.618143,18.0556641 482.739227,18.0556641 C481.317996,18.0556641 479.764301,18.850578 478.078094,20.4404297 L477.572235,20.1152344 C477.234994,19.8743478 477.054332,19.5852881 477.030243,19.2480469 C477.030243,18.4049437 477.873333,17.5859415 479.55954,16.7910156 C480.884416,16.1406217 481.944301,15.8274738 482.739227,15.8515625 C484.642232,15.8515625 486.105596,16.6223881 487.129364,18.1640625 C488.153132,19.7057369 488.665009,21.9459488 488.665009,24.8847656 C488.665009,27.6549618 487.400373,31.3043393 484.871063,35.8330078 C481.811803,41.3011341 478.535794,44.1796861 475.042938,44.46875 C474.850229,44.4928387 474.669567,44.5048828 474.500946,44.5048828 C472.742474,44.5048828 471.297176,43.8063221 470.165009,42.4091797 C469.032841,40.96386 468.466766,39.1813257 468.466766,37.0615234 L468.466766,37.0615234 Z M491.67688,37.6757812 C491.67688,36.4231708 492.351352,33.0146763 493.700317,27.4501953 C495.217903,21.1389658 496.518671,17.9352218 497.602661,17.8388672 C497.98808,17.8388672 498.48189,18.0074853 499.084106,18.3447266 C499.56588,18.6337905 499.818807,18.9830709 499.842896,19.3925781 C499.842896,19.4889328 499.734498,19.7900365 499.5177,20.2958984 L498.939575,21.921875 C495.928492,30.1120201 494.422974,35.7366383 494.422974,38.7958984 C494.422974,40.7711687 494.772254,41.7467449 495.470825,41.7226562 C496.410283,41.7226562 497.73514,40.6386827 499.445435,38.4707031 C501.420705,36.0136596 503.323681,32.9785337 505.154419,29.3652344 C507.274221,25.2701618 508.334106,22.1386827 508.334106,19.9707031 C508.334106,19.2721319 508.562945,18.5856154 509.02063,17.9111328 C509.454226,17.2607389 509.972124,16.9355469 510.574341,16.9355469 C511.754685,16.9355469 512.344849,17.5377544 512.344849,18.7421875 C512.344849,19.0794288 512.14612,20.2115789 511.748657,22.1386719 C511.351194,24.0657648 511.152466,26.0891821 511.152466,28.2089844 C511.152466,35.5560263 512.284616,39.2294922 514.54895,39.2294922 C515.102989,39.2294922 515.693153,38.9043001 516.319458,38.2539062 C516.608522,38.0130196 517.005979,37.6998717 517.511841,37.3144531 C518.06588,37.748049 518.342896,38.1093736 518.342896,38.3984375 C518.342896,39.2415407 517.740688,40.0123663 516.536255,40.7109375 C515.54862,41.2649767 514.789838,41.529948 514.259888,41.5058594 C510.598411,41.5058594 508.478641,37.4951573 507.900513,29.4736328 L507.828247,28.859375 C505.371204,33.99026 503.745243,37.194004 502.950317,38.4707031 C500.396919,42.3730664 497.747206,44.3242187 495.001099,44.3242187 C492.784942,44.3242187 491.67688,42.1080951 491.67688,37.6757812 L491.67688,37.6757812 Z M517.271759,28.7871094 C517.271759,26.4264205 519.10247,23.4635595 522.763947,19.8984375 C526.377246,16.3574042 529.460548,14.5869141 532.013947,14.5869141 C532.66434,14.5869141 533.519475,14.8518854 534.579376,15.3818359 C535.759721,16.0563185 536.349884,16.8030558 536.349884,17.6220703 C536.349884,18.6097055 535.940383,19.1035156 535.121368,19.1035156 C534.976836,19.1035156 534.531203,18.8987651 533.784454,18.4892578 C532.96544,18.0556619 532.375276,17.8388672 532.013947,17.8388672 L531.724884,17.8388672 C530.159121,17.8388672 528.003218,18.9951056 525.257111,21.3076172 C522.294205,23.812838 520.812775,25.9807851 520.812775,27.8115234 C520.812775,28.7509813 522.547132,29.2207031 526.0159,29.2207031 C532.616193,29.2207031 535.91629,31.0755023 535.91629,34.7851562 C535.91629,37.4108204 534.43486,39.7594297 531.471954,41.8310547 C528.749936,43.7099703 526.088178,44.6373699 523.486603,44.6132812 C522.354436,44.6132812 521.270462,44.2519567 520.23465,43.5292969 C519.054305,42.734371 518.464142,41.6744858 518.464142,40.3496094 C518.464142,39.9160135 518.705025,39.2656293 519.186798,38.3984375 C519.740837,37.5553343 520.306912,37.1458332 520.88504,37.1699219 C521.029572,37.1699219 521.210235,37.2180985 521.427032,37.3144531 C521.378855,38.109379 521.222281,38.7236306 520.957306,39.1572266 C520.812774,39.3981132 520.740509,39.6630845 520.740509,39.9521484 C520.740509,41.0361382 521.378849,41.578125 522.655548,41.578125 C524.534464,41.578125 526.762632,40.939785 529.340118,39.6630859 C532.158492,38.2659435 533.567657,36.784513 533.567657,35.21875 C533.567657,34.2792922 533.097936,33.4964224 532.158478,32.8701172 C531.339463,32.3401666 530.448196,32.0390629 529.48465,31.9667969 L522.655548,31.75 C521.475204,31.6536454 520.39123,31.4127623 519.403595,31.0273437 C517.982364,30.4251272 517.271759,29.6783899 517.271759,28.7871094 L517.271759,28.7871094 Z M3.51855469,118.90332 C3.51855469,115.892238 5.09633839,111.917668 8.25195312,106.979492 C11.2148586,102.33038 14.5751765,98.4039874 18.3330078,95.2001953 C21.1754699,92.7913291 23.4759027,91.5869141 25.234375,91.5869141 C25.9088575,91.5869141 26.5110651,91.7555322 27.0410156,92.0927734 C27.9322961,92.69499 28.3779297,93.8873609 28.3779297,95.6699219 C28.3779297,97.7897241 27.6432365,98.9218743 26.1738281,99.0664062 C25.1380157,99.1627609 24.6201172,98.8134805 24.6201172,98.0185547 C24.6201172,97.8258454 24.6442055,97.7054039 24.6923828,97.6572266 C25.1259787,96.5250594 25.3427734,95.5374391 25.3427734,94.6943359 C25.3427734,94.2125627 25.2705085,93.9596355 25.1259766,93.9355469 C22.813465,94.3691428 19.0677342,97.9703438 13.8886719,104.739258 C8.6614322,111.556349 6.04785156,116.217435 6.04785156,118.722656 C6.04785156,119.613937 6.43326438,120.05957 7.20410156,120.05957 C9.17937186,120.05957 12.39516,117.397813 16.8515625,112.074219 L21.8740234,106.003906 C23.1507225,104.173168 23.909504,102.474943 24.1503906,100.90918 C24.2949226,99.8733672 24.8369094,99.3554687 25.7763672,99.3554687 C27.004889,99.3554687 27.6311848,99.8372348 27.6552734,100.800781 C27.6552734,100.993491 27.6311851,101.198241 27.5830078,101.415039 C26.4026634,107.485382 25.8004558,111.158848 25.7763672,112.435547 C25.7763672,114.796236 26.3303981,116.133136 27.4384766,116.446289 C27.7757178,116.494466 28.1611306,116.422201 28.5947266,116.229492 C28.9319678,116.036783 29.1367184,115.832032 29.2089844,115.615234 C29.4257823,114.579422 30.0159457,114.061523 30.9794922,114.061523 C31.5335314,114.061523 31.7985027,114.386715 31.7744141,115.037109 C31.7744141,115.374351 31.7262375,115.675454 31.6298828,115.94043 C30.8831343,117.819345 29.5582777,118.746745 27.6552734,118.722656 C27.2216775,118.722656 26.7037791,118.602215 26.1015625,118.361328 C23.8854056,117.518225 22.7773438,114.928733 22.7773438,110.592773 L22.7773438,109.111328 C20.6093642,112.074234 18.0439601,114.916653 15.0810547,117.638672 C11.419578,120.890641 8.57715855,122.516602 6.55371094,122.516602 C5.90331706,122.516602 5.33724199,122.347983 4.85546875,122.010742 C3.96418825,121.263994 3.51855469,120.228197 3.51855469,118.90332 L3.51855469,118.90332 Z M32.2931213,103.330078 C32.2931213,102.58333 34.2442737,101.282561 38.146637,99.4277344 L38.7970276,99.2109375 C38.8452049,98.9218736 39.1222204,96.5491759 39.6280823,92.0927734 C40.0135009,88.8889814 40.7963706,87.2871094 41.9767151,87.2871094 C42.9643502,87.2871094 43.506337,87.9495376 43.6026917,89.2744141 L42.1212463,98.0185547 C43.2534135,97.7776681 44.5180492,97.6572266 45.9151917,97.6572266 C46.6137629,97.6572266 47.4207209,97.8981096 48.3360901,98.3798828 C49.5646119,99.078454 50.1788635,99.8733679 50.1788635,100.764648 C50.1788635,100.861003 50.1306869,101.005533 50.0343323,101.198242 L50.0343323,101.270508 L49.889801,101.55957 L49.6007385,101.704102 L49.5284729,101.704102 C49.3357636,101.800456 49.1671455,101.860677 49.0226135,101.884766 C48.9262589,101.884766 48.7455966,101.75228 48.4806213,101.487305 C48.0470254,100.355138 47.2641556,99.7890625 46.1319885,99.7890625 C45.7465699,99.7890625 45.3250247,99.8613274 44.8673401,100.005859 C43.8797049,100.246746 42.8679963,100.69238 41.8321838,101.342773 L41.8321838,101.884766 C41.5912972,103.763681 41.4708557,105.775054 41.4708557,107.918945 C41.4708557,108.786137 41.494944,109.653316 41.5431213,110.520508 C41.7599193,116.735383 43.1690849,119.842773 45.7706604,119.842773 C46.5174089,119.842773 47.1798372,119.469405 47.7579651,118.722656 C48.408359,117.92773 48.8299042,117.542318 49.0226135,117.566406 C49.8175394,117.566406 50.2029522,117.927731 50.1788635,118.650391 C50.1788635,119.493494 49.4682587,120.288408 48.0470276,121.035156 C46.8666831,121.637373 46.0235926,121.938477 45.5177307,121.938477 C43.3979284,121.938477 41.6997032,120.770194 40.4230042,118.433594 C39.4835463,116.651033 38.9174713,114.808278 38.724762,112.905273 C38.5320527,111.074535 38.4356995,109.195648 38.4356995,107.268555 C38.4356995,105.630526 38.5079644,103.980477 38.6524963,102.318359 C37.5203292,102.703778 35.9425455,103.619133 33.9190979,105.064453 C33.7263886,105.257162 33.4975497,105.353516 33.2325745,105.353516 C32.6062692,105.329427 32.2931213,104.654955 32.2931213,103.330078 L32.2931213,103.330078 Z M52.8655396,103.330078 C52.8655396,102.58333 54.8166919,101.282561 58.7190552,99.4277344 L59.3694458,99.2109375 C59.4176231,98.9218736 59.6946386,96.5491759 60.2005005,92.0927734 C60.5859191,88.8889814 61.3687889,87.2871094 62.5491333,87.2871094 C63.5367684,87.2871094 64.0787552,87.9495376 64.1751099,89.2744141 L62.6936646,98.0185547 C63.8258317,97.7776681 65.0904675,97.6572266 66.4876099,97.6572266 C67.1861811,97.6572266 67.9931391,97.8981096 68.9085083,98.3798828 C70.1370301,99.078454 70.7512817,99.8733679 70.7512817,100.764648 C70.7512817,100.861003 70.7031051,101.005533 70.6067505,101.198242 L70.6067505,101.270508 L70.4622192,101.55957 L70.1731567,101.704102 L70.1008911,101.704102 C69.9081818,101.800456 69.7395637,101.860677 69.5950317,101.884766 C69.4986771,101.884766 69.3180148,101.75228 69.0530396,101.487305 C68.6194436,100.355138 67.8365739,99.7890625 66.7044067,99.7890625 C66.3189881,99.7890625 65.8974429,99.8613274 65.4397583,100.005859 C64.4521232,100.246746 63.4404145,100.69238 62.4046021,101.342773 L62.4046021,101.884766 C62.1637154,103.763681 62.0432739,105.775054 62.0432739,107.918945 C62.0432739,108.786137 62.0673622,109.653316 62.1155396,110.520508 C62.3323375,116.735383 63.7415031,119.842773 66.3430786,119.842773 C67.0898271,119.842773 67.7522554,119.469405 68.3303833,118.722656 C68.9807772,117.92773 69.4023224,117.542318 69.5950317,117.566406 C70.3899576,117.566406 70.7753704,117.927731 70.7512817,118.650391 C70.7512817,119.493494 70.0406769,120.288408 68.6194458,121.035156 C67.4391014,121.637373 66.5960108,121.938477 66.0901489,121.938477 C63.9703467,121.938477 62.2721215,120.770194 60.9954224,118.433594 C60.0559645,116.651033 59.4898895,114.808278 59.2971802,112.905273 C59.1044709,111.074535 59.0081177,109.195648 59.0081177,107.268555 C59.0081177,105.630526 59.0803826,103.980477 59.2249146,102.318359 C58.0927474,102.703778 56.5149637,103.619133 54.4915161,105.064453 C54.2988068,105.257162 54.069968,105.353516 53.8049927,105.353516 C53.1786875,105.329427 52.8655396,104.654955 52.8655396,103.330078 L52.8655396,103.330078 Z M72.3178406,113.194336 C72.5587272,109.581037 74.4376147,105.20901 77.9545593,100.078125 C81.8087453,94.4654667 85.313593,91.6591797 88.4692078,91.6591797 C89.4568429,91.6591797 90.2397127,92.1529899 90.8178406,93.140625 C91.2514365,93.8873735 91.4802754,94.646155 91.504364,95.4169922 C91.504364,97.6331491 90.5167437,100.270818 88.5414734,103.330078 C86.2771392,106.943377 83.6394702,108.75 80.6283875,108.75 C79.2071564,108.75 78.1111387,108.448896 77.3403015,107.84668 L77.2680359,107.702148 C76.8826173,108.03939 76.4128954,109.207672 75.8588562,111.207031 C75.377083,113.03777 75.1362,114.687818 75.1362,116.157227 C75.1362,117.987965 76.3647033,118.90332 78.8217468,118.90332 C81.1824357,118.90332 83.9044137,117.542331 86.9877625,114.820312 C89.9988452,112.146471 92.0945274,109.436537 93.2748718,106.69043 L94.3588562,106.69043 C94.7442748,107.075848 94.9369812,107.388996 94.9369812,107.629883 C94.9369812,107.702149 94.9249371,107.774414 94.9008484,107.84668 C93.575972,111.749043 91.2755392,115.037096 87.9994812,117.710937 C84.9643098,120.216158 81.9291839,121.46875 78.8940125,121.46875 C76.6778555,121.46875 74.9796303,120.709969 73.7992859,119.192383 C72.7875621,117.843418 72.2817078,116.121104 72.2817078,114.025391 C72.2817078,113.760415 72.2937519,113.4834 72.3178406,113.194336 L72.3178406,113.194336 Z M78.2436218,105.787109 C78.2436218,106.027996 78.7856086,106.172526 79.8695984,106.220703 L80.0141296,106.220703 C81.844868,106.220703 83.7960203,104.919935 85.8676453,102.318359 C87.9874475,99.6926952 89.0473328,97.3199976 89.0473328,95.2001953 C89.0473328,94.4775354 88.8184939,94.1162109 88.3608093,94.1162109 C88.2644547,94.1162109 88.1440132,94.1402992 87.9994812,94.1884766 C87.0600234,94.4293632 86.2530653,94.97135 85.5785828,95.8144531 C80.6885844,101.499377 78.2436218,104.823563 78.2436218,105.787109 L78.2436218,105.787109 Z M97.9849854,104.594727 C97.9849854,104.209308 98.039184,103.474615 98.147583,102.390625 C98.255982,101.306635 98.334269,100.39128 98.3824463,99.6445312 C98.6233329,97.7174383 99.3098495,96.7539062 100.442017,96.7539062 C101.236942,96.7539062 101.730753,97.0068334 101.923462,97.5126953 C101.971639,97.6572273 102.019816,97.8138012 102.067993,97.9824219 C102.11617,98.1510425 102.140259,98.271484 102.140259,98.34375 C102.140259,98.416016 102.164347,98.5304354 102.212524,98.6870117 C102.260702,98.843588 102.308878,98.9941399 102.357056,99.1386719 L100.297485,109.65332 L100.87561,108.533203 C105.861963,100.005817 109.439076,95.7421875 111.607056,95.7421875 C113.606415,95.7421875 114.943315,97.2115738 115.617798,100.150391 L116.195923,106.834961 C116.436809,109.147472 116.689737,111.219066 116.954712,113.049805 C117.508751,116.349951 118.291621,118 119.303345,118 C119.736941,118 120.327104,117.578455 121.073853,116.735352 L122.410767,117.168945 C122.507121,118.060226 122.109664,118.831051 121.218384,119.481445 C120.543901,119.915041 119.953738,120.131836 119.447876,120.131836 C116.099552,120.131836 114.00387,116.31384 113.160767,108.677734 C112.968057,106.05207 112.727174,103.558931 112.43811,101.198242 C112.197224,99.2711492 111.872032,98.3076172 111.462524,98.3076172 C110.619421,98.3076172 108.644181,100.800756 105.536743,105.787109 C102.284774,111.014349 100.06865,115.579082 98.8883057,119.481445 C98.5992417,120.565435 98.0331667,121.107422 97.1900635,121.107422 C96.2506057,121.107422 95.7808838,120.661788 95.7808838,119.770508 C95.7567951,119.312823 96.4914883,114.25428 97.9849854,104.594727 L97.9849854,104.594727 Z M122.784943,119.40918 C122.784943,117.409821 123.82074,114.374695 125.892365,110.303711 C128.156699,105.82322 130.673926,102.101577 133.444122,99.1386719 C136.744269,95.5253726 139.85166,93.71875 142.766388,93.71875 C143.8022,93.71875 144.886174,94.1402953 146.018341,94.9833984 L148.077911,83.7460937 C148.969192,79.0006273 149.956812,76.6279297 151.040802,76.6279297 C151.378043,76.6279297 151.799589,76.8326802 152.30545,77.2421875 C152.739046,77.6035174 152.967885,78.0371068 152.991974,78.5429687 C152.991974,78.6875007 152.69087,79.7232977 152.088654,81.6503906 C149.125748,91.8639834 147.644318,101.631789 147.644318,110.954102 C147.644318,116.374051 148.46332,119.096029 150.101349,119.120117 C150.149526,119.07194 150.221791,119.023763 150.318146,118.975586 L150.607208,118.831055 C150.896272,118.638345 151.390082,118.36133 152.088654,118 C152.474072,118.385419 152.666779,118.806964 152.666779,119.264648 C152.666779,119.866865 152.32352,120.360675 151.636993,120.746094 C150.950467,121.131512 150.342237,121.324219 149.812286,121.324219 C146.415785,121.324219 144.705516,117.40987 144.681427,109.581055 C144.681427,108.497065 144.705515,107.629886 144.753693,106.979492 L143.489044,108.605469 C135.949293,118.168668 130.45716,122.950195 127.012482,122.950195 L126.325958,122.950195 C123.965269,122.950195 122.784943,121.769869 122.784943,119.40918 L122.784943,119.40918 Z M125.241974,119.264648 C125.241974,119.915042 125.506945,120.22819 126.036896,120.204102 C128.060343,120.204102 131.517015,117.771183 136.407013,112.905273 C140.839327,108.376605 143.452907,105.184905 144.247833,103.330078 C144.801872,102.101556 145.066844,100.824876 145.042755,99.5 C145.042755,98.7532515 144.850049,98.0426466 144.46463,97.3681641 C144.127389,96.7177702 143.681755,96.3203132 143.127716,96.1757812 C142.959095,96.1516926 142.790477,96.1396484 142.621857,96.1396484 C140.020281,96.1396484 136.491345,99.30726 132.034943,105.642578 C127.506274,112.09834 125.241974,116.638984 125.241974,119.264648 L125.241974,119.264648 Z M154.955994,113.194336 C155.19688,109.581037 157.075768,105.20901 160.592712,100.078125 C164.446898,94.4654667 167.951746,91.6591797 171.107361,91.6591797 C172.094996,91.6591797 172.877866,92.1529899 173.455994,93.140625 C173.88959,93.8873735 174.118428,94.646155 174.142517,95.4169922 C174.142517,97.6331491 173.154897,100.270818 171.179626,103.330078 C168.915292,106.943377 166.277623,108.75 163.266541,108.75 C161.845309,108.75 160.749292,108.448896 159.978455,107.84668 L159.906189,107.702148 C159.52077,108.03939 159.051049,109.207672 158.497009,111.207031 C158.015236,113.03777 157.774353,114.687818 157.774353,116.157227 C157.774353,117.987965 159.002856,118.90332 161.4599,118.90332 C163.820589,118.90332 166.542567,117.542331 169.625916,114.820312 C172.636998,112.146471 174.73268,109.436537 175.913025,106.69043 L176.997009,106.69043 C177.382428,107.075848 177.575134,107.388996 177.575134,107.629883 C177.575134,107.702149 177.56309,107.774414 177.539001,107.84668 C176.214125,111.749043 173.913692,115.037096 170.637634,117.710937 C167.602463,120.216158 164.567337,121.46875 161.532166,121.46875 C159.316009,121.46875 157.617783,120.709969 156.437439,119.192383 C155.425715,117.843418 154.919861,116.121104 154.919861,114.025391 C154.919861,113.760415 154.931905,113.4834 154.955994,113.194336 L154.955994,113.194336 Z M160.881775,105.787109 C160.881775,106.027996 161.423762,106.172526 162.507751,106.220703 L162.652283,106.220703 C164.483021,106.220703 166.434173,104.919935 168.505798,102.318359 C170.625601,99.6926952 171.685486,97.3199976 171.685486,95.2001953 C171.685486,94.4775354 171.456647,94.1162109 170.998962,94.1162109 C170.902608,94.1162109 170.782166,94.1402992 170.637634,94.1884766 C169.698176,94.4293632 168.891218,94.97135 168.216736,95.8144531 C163.326737,101.499377 160.881775,104.823563 160.881775,105.787109 L160.881775,105.787109 Z M178.20224,118.361328 C178.20224,116.988274 179.406655,115.241873 181.815521,113.12207 C185.766062,109.677392 189.76472,106.473648 193.811615,103.510742 C198.340283,100.162418 200.737069,98.3557956 201.002045,98.0908203 L201.363373,97.8017578 C200.953866,97.7776692 200.520276,97.765625 200.062592,97.765625 C197.653725,97.765625 194.606555,98.1028612 190.92099,98.7773437 C187.524489,99.4277376 185.079526,99.9697244 183.586029,100.40332 C183.489674,100.451498 183.345145,100.475586 183.152435,100.475586 C181.779382,100.475586 181.092865,99.9095109 181.092865,98.7773437 C181.092865,98.1269499 181.562587,97.572919 182.502045,97.1152344 C183.296971,96.7298158 183.887134,96.5371094 184.272552,96.5371094 C185.40472,96.5371094 190.463263,96.1155641 199.448334,95.2724609 C202.652126,95.2724609 204.253998,96.0914632 204.253998,97.7294922 C204.253998,98.524418 203.218201,99.801098 201.146576,101.55957 L196.774506,104.919922 L186.693451,112.507812 C183.29695,115.278009 181.454195,117.132808 181.165131,118.072266 C181.598727,118.072266 181.960051,118.096354 182.249115,118.144531 C190.921033,115.83202 196.184327,114.675781 198.039154,114.675781 C199.773538,114.675781 201.351321,114.988929 202.772552,115.615234 C204.892355,116.506515 205.95224,117.795239 205.95224,119.481445 C205.95224,119.5778 205.747489,120.023434 205.337982,120.818359 C205.000741,120.818359 204.639416,120.697918 204.253998,120.457031 C203.916757,120.264322 203.736094,120.035483 203.712006,119.770508 C203.760183,118.927405 203.404881,118.301109 202.646088,117.891602 C201.887295,117.482094 200.71299,117.277344 199.123138,117.277344 C196.666095,117.277344 191.535287,118.578112 183.73056,121.179687 C182.261152,121.661461 181.357841,121.914388 181.020599,121.938477 C180.008876,121.938477 179.503021,121.444666 179.503021,120.457031 C179.503021,120.312499 179.515065,120.155925 179.539154,119.987305 L179.539154,119.770508 C178.647874,119.264646 178.20224,118.794924 178.20224,118.361328 L178.20224,118.361328 Z M228.12735,90.3222656 C228.12735,89.0937439 230.090546,87.3714304 234.016998,85.1552734 C237.630298,83.1318258 240.171613,81.9153666 241.641022,81.5058594 C244.19442,80.7591108 246.735736,80.3977863 249.265045,80.421875 C255.817161,80.421875 259.105214,82.8547934 259.129303,87.7207031 C259.129303,90.5872539 256.780694,93.875307 252.083405,97.5849609 C251.842518,97.7776702 249.939542,99.1507034 246.37442,101.704102 C241.33989,105.245135 238.834707,107.834627 238.858795,109.472656 C238.858795,110.315759 239.22012,110.761393 239.94278,110.80957 C241.219479,110.954102 241.869863,111.351559 241.893951,112.001953 C241.893951,112.893234 241.315832,113.338867 240.159576,113.338867 C238.979232,113.338867 238.027744,112.917322 237.305084,112.074219 C236.558336,111.255204 236.184967,110.291672 236.184967,109.183594 C236.184967,107.256501 237.931369,104.823582 241.424225,101.884766 L251.143951,94.4052734 C254.58863,91.5869 256.310944,89.3346438 256.310944,87.6484375 C256.310944,84.4928228 253.938246,82.9150391 249.19278,82.9150391 C246.735736,82.9150391 243.857184,83.709953 240.557037,85.2998047 C238.53359,86.2874398 236.088627,87.744782 233.222076,89.671875 C230.957742,91.2617267 229.777415,92.0445965 229.681061,92.0205078 C228.645248,92.0205078 228.12735,91.4544327 228.12735,90.3222656 L228.12735,90.3222656 Z M236.979889,121.107422 C236.979889,119.830723 237.750715,119.192383 239.292389,119.192383 C240.882241,119.192383 241.66511,119.782546 241.641022,120.962891 C241.641022,121.444664 241.327874,121.866209 240.701569,122.227539 C240.147529,122.56478 239.653719,122.733398 239.220123,122.733398 C237.726626,122.733398 236.979889,122.191412 236.979889,121.107422 L236.979889,121.107422 Z M278.919647,89.9609375 C278.919647,89.1660117 279.979532,88.154303 282.099335,86.9257812 C288.868249,82.9752407 296.130871,81 303.887421,81 C308.873774,81 313.281933,82.4814305 317.11203,85.4443359 C321.303457,88.5999507 323.399139,92.6708735 323.399139,97.6572266 C323.399139,103.679392 321.086663,109.376275 316.461639,114.748047 C311.667996,120.432971 306.260172,123.263346 300.238007,123.239258 C297.925495,123.239258 296.251358,122.853845 295.215546,122.083008 C295.022836,121.938476 294.926483,121.733725 294.926483,121.46875 C294.926483,121.179686 295.071013,120.884604 295.360077,120.583496 C295.649141,120.282388 295.974333,120.180013 296.335663,120.276367 C297.973692,120.613608 298.78065,120.794271 298.756561,120.818359 C303.887446,120.818359 308.80146,118.228867 313.498749,113.049805 C318.147861,107.967097 320.460337,102.860377 320.436249,97.7294922 C320.436249,93.538065 318.713935,90.1295704 315.269257,87.5039062 C312.089553,85.1432174 308.235425,83.9628906 303.706757,83.9628906 C300.695674,83.9628906 297.443753,84.4567008 293.950897,85.4443359 C290.241243,86.5283257 287.278382,87.829094 285.062225,89.3466797 C282.653359,91.032886 281.304414,91.8759766 281.01535,91.8759766 C279.618208,91.8759766 278.919647,91.2376366 278.919647,89.9609375 L278.919647,89.9609375 Z M286.326874,106.148437 L286.326874,101.487305 C286.326874,100.066074 286.652066,97.6331552 287.30246,94.1884766 C288.049208,90.2861133 288.80799,88.3349609 289.578827,88.3349609 C290.855526,88.3349609 291.50591,89.0214775 291.529999,90.3945312 C291.529999,91.0931025 291.373425,91.9602813 291.060272,92.9960937 C290.963918,93.3815123 290.867564,93.7849914 290.77121,94.206543 C290.674855,94.6280946 290.60259,94.9352204 290.554413,95.1279297 C290.506236,95.320639 290.482147,95.4410805 290.482147,95.4892578 C289.783576,99.3434437 289.434296,102.703762 289.434296,105.570312 C289.434296,115.543019 291.192742,120.529297 294.709686,120.529297 C294.950573,120.529297 295.420295,120.4209 296.118866,120.204102 C295.034876,122.131195 294.071344,123.094727 293.228241,123.094727 C290.819375,123.094727 288.988664,120.734073 287.736053,116.012695 C286.796596,112.495751 286.326874,109.207698 286.326874,106.148437 L286.326874,106.148437 Z M324.965698,113.194336 C325.206585,109.581037 327.085472,105.20901 330.602417,100.078125 C334.456603,94.4654667 337.961451,91.6591797 341.117065,91.6591797 C342.104701,91.6591797 342.88757,92.1529899 343.465698,93.140625 C343.899294,93.8873735 344.128133,94.646155 344.152222,95.4169922 C344.152222,97.6331491 343.164601,100.270818 341.189331,103.330078 C338.924997,106.943377 336.287328,108.75 333.276245,108.75 C331.855014,108.75 330.758996,108.448896 329.988159,107.84668 L329.915894,107.702148 C329.530475,108.03939 329.060753,109.207672 328.506714,111.207031 C328.024941,113.03777 327.784058,114.687818 327.784058,116.157227 C327.784058,117.987965 329.012561,118.90332 331.469604,118.90332 C333.830293,118.90332 336.552271,117.542331 339.63562,114.820312 C342.646703,112.146471 344.742385,109.436537 345.922729,106.69043 L347.006714,106.69043 C347.392132,107.075848 347.584839,107.388996 347.584839,107.629883 C347.584839,107.702149 347.572795,107.774414 347.548706,107.84668 C346.22383,111.749043 343.923397,115.037096 340.647339,117.710937 C337.612167,120.216158 334.577042,121.46875 331.54187,121.46875 C329.325713,121.46875 327.627488,120.709969 326.447144,119.192383 C325.43542,117.843418 324.929565,116.121104 324.929565,114.025391 C324.929565,113.760415 324.94161,113.4834 324.965698,113.194336 L324.965698,113.194336 Z M330.891479,105.787109 C330.891479,106.027996 331.433466,106.172526 332.517456,106.220703 L332.661987,106.220703 C334.492726,106.220703 336.443878,104.919935 338.515503,102.318359 C340.635305,99.6926952 341.69519,97.3199976 341.69519,95.2001953 C341.69519,94.4775354 341.466352,94.1162109 341.008667,94.1162109 C340.912312,94.1162109 340.791871,94.1402992 340.647339,94.1884766 C339.707881,94.4293632 338.900923,94.97135 338.22644,95.8144531 C333.336442,101.499377 330.891479,104.823563 330.891479,105.787109 L330.891479,105.787109 Z M348.501007,105.787109 C348.501007,103.42642 350.331718,100.463559 353.993195,96.8984375 C357.606494,93.3574042 360.689796,91.5869141 363.243195,91.5869141 C363.893588,91.5869141 364.748723,91.8518854 365.808624,92.3818359 C366.988969,93.0563185 367.579132,93.8030558 367.579132,94.6220703 C367.579132,95.6097055 367.169631,96.1035156 366.350616,96.1035156 C366.206084,96.1035156 365.760451,95.8987651 365.013702,95.4892578 C364.194688,95.0556619 363.604525,94.8388672 363.243195,94.8388672 L362.954132,94.8388672 C361.388369,94.8388672 359.232466,95.9951056 356.486359,98.3076172 C353.523453,100.812838 352.042023,102.980785 352.042023,104.811523 C352.042023,105.750981 353.77638,106.220703 357.245148,106.220703 C363.845441,106.220703 367.145538,108.075502 367.145538,111.785156 C367.145538,114.41082 365.664108,116.75943 362.701202,118.831055 C359.979184,120.70997 357.317426,121.63737 354.715851,121.613281 C353.583684,121.613281 352.49971,121.251957 351.463898,120.529297 C350.283553,119.734371 349.69339,118.674486 349.69339,117.349609 C349.69339,116.916013 349.934273,116.265629 350.416046,115.398437 C350.970085,114.555334 351.53616,114.145833 352.114288,114.169922 C352.25882,114.169922 352.439483,114.218098 352.656281,114.314453 C352.608103,115.109379 352.451529,115.723631 352.186554,116.157227 C352.042022,116.398113 351.969757,116.663084 351.969757,116.952148 C351.969757,118.036138 352.608097,118.578125 353.884796,118.578125 C355.763712,118.578125 357.99188,117.939785 360.569366,116.663086 C363.38774,115.265944 364.796906,113.784513 364.796906,112.21875 C364.796906,111.279292 364.327184,110.496422 363.387726,109.870117 C362.568711,109.340167 361.677444,109.039063 360.713898,108.966797 L353.884796,108.75 C352.704452,108.653645 351.620478,108.412762 350.632843,108.027344 C349.211612,107.425127 348.501007,106.67839 348.501007,105.787109 L348.501007,105.787109 Z M369.868347,113.338867 C369.868347,109.8701 371.422043,105.654647 374.52948,100.692383 C378.070513,94.9592812 381.852377,92.0927734 385.875183,92.0927734 C386.573754,92.0927734 387.585463,92.3938772 388.910339,92.9960937 C390.6929,93.7669309 391.584167,94.7425071 391.584167,95.9228516 C391.584167,96.2841815 391.403505,96.5852853 391.042175,96.8261719 C390.608579,97.1152358 390.235211,97.2718098 389.922058,97.2958984 C389.440285,97.2958984 388.777857,96.8743532 387.934753,96.03125 C387.09165,95.1881468 386.30878,94.7666016 385.586121,94.7666016 C382.695481,94.7666016 379.73262,97.4283588 376.697449,102.751953 C374.023607,107.49742 372.686707,111.170885 372.686707,113.772461 C372.686707,116.735366 373.951342,118.216797 376.480652,118.216797 C378.913607,118.216797 381.346525,117.409839 383.77948,115.795898 C385.899282,114.422845 387.802258,112.447604 389.488464,109.870117 C389.632996,109.629231 389.825703,109.496745 390.066589,109.472656 C390.403831,109.472656 390.680846,109.653319 390.897644,110.014648 C391.138531,110.448244 391.234884,110.761392 391.186707,110.954102 C390.94582,111.749027 389.620963,113.338855 387.212097,115.723633 C385.044118,117.93979 383.683129,119.144205 383.129089,119.336914 C380.816578,120.613613 379.359236,121.251953 378.757019,121.251953 C378.516132,121.251953 378.221051,121.276041 377.871765,121.324219 C377.52248,121.372396 377.227398,121.396484 376.986511,121.396484 C374.553556,121.396484 372.698757,120.505217 371.422058,118.722656 C370.386246,117.253248 369.868347,115.458669 369.868347,113.338867 L369.868347,113.338867 Z M395.029633,113.194336 C395.270519,109.581037 397.149407,105.20901 400.666351,100.078125 C404.520537,94.4654667 408.025385,91.6591797 411.181,91.6591797 C412.168635,91.6591797 412.951505,92.1529899 413.529633,93.140625 C413.963228,93.8873735 414.192067,94.646155 414.216156,95.4169922 C414.216156,97.6331491 413.228536,100.270818 411.253265,103.330078 C408.988931,106.943377 406.351262,108.75 403.340179,108.75 C401.918948,108.75 400.822931,108.448896 400.052094,107.84668 L399.979828,107.702148 C399.594409,108.03939 399.124687,109.207672 398.570648,111.207031 C398.088875,113.03777 397.847992,114.687818 397.847992,116.157227 C397.847992,117.987965 399.076495,118.90332 401.533539,118.90332 C403.894228,118.90332 406.616206,117.542331 409.699554,114.820312 C412.710637,112.146471 414.806319,109.436537 415.986664,106.69043 L417.070648,106.69043 C417.456067,107.075848 417.648773,107.388996 417.648773,107.629883 C417.648773,107.702149 417.636729,107.774414 417.61264,107.84668 C416.287764,111.749043 413.987331,115.037096 410.711273,117.710937 C407.676102,120.216158 404.640976,121.46875 401.605804,121.46875 C399.389648,121.46875 397.691422,120.709969 396.511078,119.192383 C395.499354,117.843418 394.9935,116.121104 394.9935,114.025391 C394.9935,113.760415 395.005544,113.4834 395.029633,113.194336 L395.029633,113.194336 Z M400.955414,105.787109 C400.955414,106.027996 401.497401,106.172526 402.58139,106.220703 L402.725922,106.220703 C404.55666,106.220703 406.507812,104.919935 408.579437,102.318359 C410.69924,99.6926952 411.759125,97.3199976 411.759125,95.2001953 C411.759125,94.4775354 411.530286,94.1162109 411.072601,94.1162109 C410.976247,94.1162109 410.855805,94.1402992 410.711273,94.1884766 C409.771815,94.4293632 408.964857,94.97135 408.290375,95.8144531 C403.400376,101.499377 400.955414,104.823563 400.955414,105.787109 L400.955414,105.787109 Z M420.696777,104.594727 C420.696777,104.209308 420.750976,103.474615 420.859375,102.390625 C420.967774,101.306635 421.046061,100.39128 421.094238,99.6445312 C421.335125,97.7174383 422.021641,96.7539062 423.153809,96.7539062 C423.948734,96.7539062 424.442545,97.0068334 424.635254,97.5126953 C424.683431,97.6572273 424.731608,97.8138012 424.779785,97.9824219 C424.827962,98.1510425 424.852051,98.271484 424.852051,98.34375 C424.852051,98.416016 424.876139,98.5304354 424.924316,98.6870117 C424.972494,98.843588 425.02067,98.9941399 425.068848,99.1386719 L423.009277,109.65332 L423.587402,108.533203 C428.573755,100.005817 432.150868,95.7421875 434.318848,95.7421875 C436.318207,95.7421875 437.655107,97.2115738 438.32959,100.150391 L438.907715,106.834961 C439.148601,109.147472 439.401529,111.219066 439.666504,113.049805 C440.220543,116.349951 441.003413,118 442.015137,118 C442.448733,118 443.038896,117.578455 443.785645,116.735352 L445.122559,117.168945 C445.218913,118.060226 444.821456,118.831051 443.930176,119.481445 C443.255693,119.915041 442.66553,120.131836 442.159668,120.131836 C438.811344,120.131836 436.715662,116.31384 435.872559,108.677734 C435.679849,106.05207 435.438966,103.558931 435.149902,101.198242 C434.909016,99.2711492 434.583824,98.3076172 434.174316,98.3076172 C433.331213,98.3076172 431.355973,100.800756 428.248535,105.787109 C424.996566,111.014349 422.780442,115.579082 421.600098,119.481445 C421.311034,120.565435 420.744959,121.107422 419.901855,121.107422 C418.962398,121.107422 418.492676,120.661788 418.492676,119.770508 C418.468587,119.312823 419.20328,114.25428 420.696777,104.594727 L420.696777,104.594727 Z M445.496735,119.40918 C445.496735,117.409821 446.532532,114.374695 448.604156,110.303711 C450.868491,105.82322 453.385718,102.101577 456.155914,99.1386719 C459.456061,95.5253726 462.563452,93.71875 465.47818,93.71875 C466.513992,93.71875 467.597966,94.1402953 468.730133,94.9833984 L470.789703,83.7460937 C471.680984,79.0006273 472.668604,76.6279297 473.752594,76.6279297 C474.089835,76.6279297 474.511381,76.8326802 475.017242,77.2421875 C475.450838,77.6035174 475.679677,78.0371068 475.703766,78.5429687 C475.703766,78.6875007 475.402662,79.7232977 474.800446,81.6503906 C471.83754,91.8639834 470.35611,101.631789 470.35611,110.954102 C470.35611,116.374051 471.175112,119.096029 472.813141,119.120117 C472.861318,119.07194 472.933583,119.023763 473.029938,118.975586 C473.126292,118.927409 473.222646,118.879232 473.319,118.831055 C473.608064,118.638345 474.101874,118.36133 474.800446,118 C475.185864,118.385419 475.378571,118.806964 475.378571,119.264648 C475.378571,119.866865 475.035312,120.360675 474.348785,120.746094 C473.662259,121.131512 473.054029,121.324219 472.524078,121.324219 C469.127577,121.324219 467.417308,117.40987 467.393219,109.581055 C467.393219,108.497065 467.417307,107.629886 467.465485,106.979492 L466.200836,108.605469 C458.661085,118.168668 453.168952,122.950195 449.724274,122.950195 L449.03775,122.950195 C446.677061,122.950195 445.496735,121.769869 445.496735,119.40918 L445.496735,119.40918 Z M447.953766,119.264648 C447.953766,119.915042 448.218737,120.22819 448.748688,120.204102 C450.772135,120.204102 454.228807,117.771183 459.118805,112.905273 C463.551119,108.376605 466.164699,105.184905 466.959625,103.330078 C467.513664,102.101556 467.778636,100.824876 467.754547,99.5 C467.754547,98.7532515 467.561841,98.0426466 467.176422,97.3681641 C466.839181,96.7177702 466.393547,96.3203132 465.839508,96.1757812 C465.670887,96.1516926 465.502269,96.1396484 465.333649,96.1396484 C462.732073,96.1396484 459.203137,99.30726 454.746735,105.642578 C450.218066,112.09834 447.953766,116.638984 447.953766,119.264648 L447.953766,119.264648 Z M477.667786,113.194336 C477.908672,109.581037 479.78756,105.20901 483.304504,100.078125 C487.15869,94.4654667 490.663538,91.6591797 493.819153,91.6591797 C494.806788,91.6591797 495.589658,92.1529899 496.167786,93.140625 C496.601382,93.8873735 496.83022,94.646155 496.854309,95.4169922 C496.854309,97.6331491 495.866689,100.270818 493.891418,103.330078 C491.627084,106.943377 488.989415,108.75 485.978333,108.75 C484.557101,108.75 483.461084,108.448896 482.690247,107.84668 L482.617981,107.702148 C482.232562,108.03939 481.76284,109.207672 481.208801,111.207031 C480.727028,113.03777 480.486145,114.687818 480.486145,116.157227 C480.486145,117.987965 481.714648,118.90332 484.171692,118.90332 C486.532381,118.90332 489.254359,117.542331 492.337708,114.820312 C495.34879,112.146471 497.444472,109.436537 498.624817,106.69043 L499.708801,106.69043 C500.09422,107.075848 500.286926,107.388996 500.286926,107.629883 C500.286926,107.702149 500.274882,107.774414 500.250793,107.84668 C498.925917,111.749043 496.625484,115.037096 493.349426,117.710937 C490.314255,120.216158 487.279129,121.46875 484.243958,121.46875 C482.027801,121.46875 480.329575,120.709969 479.149231,119.192383 C478.137507,117.843418 477.631653,116.121104 477.631653,114.025391 C477.631653,113.760415 477.643697,113.4834 477.667786,113.194336 L477.667786,113.194336 Z M483.593567,105.787109 C483.593567,106.027996 484.135554,106.172526 485.219543,106.220703 L485.364075,106.220703 C487.194813,106.220703 489.145965,104.919935 491.21759,102.318359 C493.337393,99.6926952 494.397278,97.3199976 494.397278,95.2001953 C494.397278,94.4775354 494.168439,94.1162109 493.710754,94.1162109 C493.6144,94.1162109 493.493958,94.1402992 493.349426,94.1884766 C492.409968,94.4293632 491.60301,94.97135 490.928528,95.8144531 C486.038529,101.499377 483.593567,104.823563 483.593567,105.787109 L483.593567,105.787109 Z M500.914032,118.361328 C500.914032,116.988274 502.118447,115.241873 504.527313,113.12207 C508.477854,109.677392 512.476512,106.473648 516.523407,103.510742 C521.052075,100.162418 523.448861,98.3557956 523.713837,98.0908203 L524.075165,97.8017578 C523.665658,97.7776692 523.232068,97.765625 522.774384,97.765625 C520.365517,97.765625 517.318347,98.1028612 513.632782,98.7773437 C510.236281,99.4277376 507.791318,99.9697244 506.297821,100.40332 C506.201466,100.451498 506.056937,100.475586 505.864227,100.475586 C504.491174,100.475586 503.804657,99.9095109 503.804657,98.7773437 C503.804657,98.1269499 504.274379,97.572919 505.213837,97.1152344 C506.008763,96.7298158 506.598926,96.5371094 506.984344,96.5371094 C508.116512,96.5371094 513.175055,96.1155641 522.160126,95.2724609 C525.363918,95.2724609 526.96579,96.0914632 526.96579,97.7294922 C526.96579,98.524418 525.929993,99.801098 523.858368,101.55957 L519.486298,104.919922 L509.405243,112.507812 C506.008742,115.278009 504.165987,117.132808 503.876923,118.072266 C504.310519,118.072266 504.671843,118.096354 504.960907,118.144531 C513.632825,115.83202 518.896119,114.675781 520.750946,114.675781 C522.48533,114.675781 524.063113,114.988929 525.484344,115.615234 C527.604147,116.506515 528.664032,117.795239 528.664032,119.481445 C528.664032,119.5778 528.459281,120.023434 528.049774,120.818359 C527.712533,120.818359 527.351208,120.697918 526.96579,120.457031 C526.628549,120.264322 526.447886,120.035483 526.423798,119.770508 C526.471975,118.927405 526.116672,118.301109 525.35788,117.891602 C524.599087,117.482094 523.424782,117.277344 521.83493,117.277344 C519.377887,117.277344 514.247079,118.578112 506.442352,121.179687 C504.972944,121.661461 504.069633,121.914388 503.732391,121.938477 C502.720668,121.938477 502.214813,121.444666 502.214813,120.457031 C502.214813,120.312499 502.226857,120.155925 502.250946,119.987305 L502.250946,119.770508 C501.359666,119.264646 500.914032,118.794924 500.914032,118.361328 L500.914032,118.361328 Z M556.150665,103.185547 C556.150665,98.6087011 556.596299,93.7308202 557.487579,88.5517578 C558.523392,82.5777696 559.655542,79.5908203 560.884064,79.5908203 C561.31766,79.5908203 561.739205,79.7835267 562.148712,80.1689453 C562.485953,80.5061866 562.654572,80.9277318 562.654572,81.4335937 C562.654572,81.5781257 562.630483,81.7106114 562.582306,81.8310547 C560.510681,87.3955356 559.474884,94.5377168 559.474884,103.257812 C559.474884,108.485052 560.486593,111.821282 562.51004,113.266602 C563.160434,113.916995 563.256787,114.434894 562.799103,114.820312 C562.558216,115.013022 562.064406,114.964845 561.317657,114.675781 C559.944604,114.073565 558.740189,112.688487 557.704376,110.520508 C556.861273,108.641592 556.367463,106.991544 556.222931,105.570312 C556.174754,105.112628 556.150665,104.317714 556.150665,103.185547 L556.150665,103.185547 Z M558.3909,121.179687 C558.3909,119.902988 559.125593,119.264648 560.595001,119.264648 C562.184853,119.264648 562.967723,119.854812 562.943634,121.035156 C562.943634,121.468752 562.654574,121.866209 562.076447,122.227539 C561.426053,122.612958 560.908154,122.805664 560.522736,122.805664 C559.101505,122.805664 558.3909,122.263677 558.3909,121.179687 L558.3909,121.179687 Z" />
    </g>
</svg>
